<svg width="986" height="683" xmlns="http://www.w3.org/2000/svg" xmlns:xlink="http://www.w3.org/1999/xlink" overflow="hidden"><g transform="translate(-158 -18)"><path d="M164 129.5 278 21 392 129.5 278 238Z" stroke="#FFAB40" stroke-width="4" stroke-miterlimit="8" fill="none" fill-rule="evenodd"/><path d="M380 316 500 230 620 316 500 402Z" stroke="#FFAB40" stroke-width="4" stroke-miterlimit="8" fill="none" fill-rule="evenodd"/><path d="M667 316 787 230 907 316 787 402Z" stroke="#FFAB40" stroke-width="4" stroke-miterlimit="8" fill="none" fill-rule="evenodd"/><rect x="978" y="268" width="160" height="95" stroke="#FFAB40" stroke-width="4" stroke-miterlimit="8" fill="none"/><rect x="691" y="589" width="192" height="108" stroke="#FFAB40" stroke-width="4" stroke-miterlimit="8" fill="none"/><rect x="404" y="589" width="192" height="108" stroke="#FFAB40" stroke-width="4" stroke-miterlimit="8" fill="none"/><rect x="182" y="589" width="192" height="108" stroke="#FFAB40" stroke-width="4" stroke-miterlimit="8" fill="none"/><text fill="#B45F06" font-family="M PLUS 1p,M PLUS 1p_MSFontService,sans-serif" font-weight="700" font-size="48" transform="translate(1027.79 333)">RP</text><text fill="#B45F06" font-family="M PLUS 1p,M PLUS 1p_MSFontService,sans-serif" font-weight="700" font-size="48" transform="translate(736.208 658)">Rich</text><text fill="#B45F06" font-family="M PLUS 1p Medium,M PLUS 1p Medium_MSFontService,sans-serif" font-weight="500" font-size="16" transform="translate(192.695 619)">まず</text><text fill="#B45F06" font-family="M PLUS 1p Black,M PLUS 1p Black_MSFontService,sans-serif" font-weight="900" font-size="16" transform="translate(224.695 619)">Robust</text><text fill="#B45F06" font-family="M PLUS 1p Medium,M PLUS 1p Medium_MSFontService,sans-serif" font-weight="500" font-size="16" transform="translate(283.862 619)">を使用し、</text><text fill="#B45F06" font-family="M PLUS 1p Medium,M PLUS 1p Medium_MSFontService,sans-serif" font-weight="500" font-size="16" transform="translate(214.275 638)">よりクオリティを</text><text fill="#B45F06" font-family="M PLUS 1p Medium,M PLUS 1p Medium_MSFontService,sans-serif" font-weight="500" font-size="16" transform="translate(238.275 657)">求める場合</text><text fill="#B45F06" font-family="M PLUS 1p Black,M PLUS 1p Black_MSFontService,sans-serif" font-weight="900" font-size="16" transform="translate(188.195 676)">Rich</text><text fill="#B45F06" font-family="M PLUS 1p Medium,M PLUS 1p Medium_MSFontService,sans-serif" font-weight="500" font-size="16" transform="translate(224.362 676)">に切り替えましょう</text><text fill="#B45F06" font-family="M PLUS 1p Medium,M PLUS 1p Medium_MSFontService,sans-serif" font-weight="500" font-size="16" transform="translate(414.417 619)">まず</text><text fill="#B45F06" font-family="M PLUS 1p Black,M PLUS 1p Black_MSFontService,sans-serif" font-weight="900" font-size="16" transform="translate(446.417 619)">Robust</text><text fill="#B45F06" font-family="M PLUS 1p Medium,M PLUS 1p Medium_MSFontService,sans-serif" font-weight="500" font-size="16" transform="translate(505.583 619)">を使用し、</text><text fill="#B45F06" font-family="M PLUS 1p Medium,M PLUS 1p Medium_MSFontService,sans-serif" font-weight="500" font-size="16" transform="translate(436.003 638)">よりクオリティを</text><text fill="#B45F06" font-family="M PLUS 1p Medium,M PLUS 1p Medium_MSFontService,sans-serif" font-weight="500" font-size="16" transform="translate(460.003 657)">求める場合</text><text fill="#B45F06" font-family="M PLUS 1p Black,M PLUS 1p Black_MSFontService,sans-serif" font-weight="900" font-size="16" transform="translate(417.25 676)">RP</text><text fill="#B45F06" font-family="M PLUS 1p Medium,M PLUS 1p Medium_MSFontService,sans-serif" font-weight="500" font-size="16" transform="translate(438.75 676)">に切り替えましょう</text><text fill="#B45F06" font-family="M PLUS 1p Black,M PLUS 1p Black_MSFontService,sans-serif" font-weight="900" font-size="53" transform="translate(551.784 87)">FCS Pipeline</text><text fill="#B45F06" font-family="M PLUS 1p Black,M PLUS 1p Black_MSFontService,sans-serif" font-weight="900" font-size="53" transform="translate(551.784 151)">selection flowchart</text><text fill="#B45F06" font-family="M PLUS 1p,M PLUS 1p_MSFontService,sans-serif" font-weight="700" font-size="27" transform="translate(213.917 274)">Yes</text><text fill="#B45F06" font-family="M PLUS 1p,M PLUS 1p_MSFontService,sans-serif" font-weight="700" font-size="27" transform="translate(433.897 435)">Yes</text><text fill="#B45F06" font-family="M PLUS 1p,M PLUS 1p_MSFontService,sans-serif" font-weight="700" font-size="27" transform="translate(721.188 435)">Yes</text><text fill="#B45F06" font-family="M PLUS 1p,M PLUS 1p_MSFontService,sans-serif" font-weight="700" font-size="27" transform="translate(454.8 117)">No</text><text fill="#B45F06" font-family="M PLUS 1p,M PLUS 1p_MSFontService,sans-serif" font-weight="700" font-size="27" transform="translate(625.689 290)">No</text><text fill="#B45F06" font-family="M PLUS 1p,M PLUS 1p_MSFontService,sans-serif" font-weight="700" font-size="27" transform="translate(916.577 290)">No</text><path d="M280 238 280 579.5 276 579.5 276 238ZM284 577.5 278 589.5 272 577.5Z" fill="#FFAB40"/><path d="M2-1.11688e-06 2.0001 178-1.9999 178-2 1.11688e-06ZM6.0001 176 0.000104987 188-5.9999 176Z" fill="#FFAB40" transform="matrix(-1 0 0 1 500 402)"/><path d="M620 314 657.291 314 657.291 318 620 318ZM655.291 310 667.291 316 655.291 322Z" fill="#FFAB40"/><path d="M907 314 968.168 314 968.168 318 907 318ZM966.168 310 978.168 316 966.168 322Z" fill="#FFAB40"/><path d="M2-1.11688e-06 2.0001 178-1.9999 178-2 1.11688e-06ZM6.0001 176 0.000104987 188-5.9999 176Z" fill="#FFAB40" transform="matrix(-1 0 0 1 787 402)"/><path d="M502 131 502 220.421 498 220.421 498 131ZM506 218.421 500 230.421 494 218.421Z" fill="#FFAB40"/><path d="M392 130 499.722 130" stroke="#FFAB40" stroke-width="4" stroke-miterlimit="8" fill="none" fill-rule="evenodd"/><path d="M190.048 104.197 206.197 104.197 206.197 106.002 199.833 106.002C199.82 108.231 199.297 109.982 198.265 111.255 197.233 112.528 195.583 113.437 193.316 113.982L192.727 112.177C194.563 111.696 195.855 110.989 196.603 110.058 197.35 109.127 197.73 107.775 197.743 106.002L190.048 106.002ZM192.232 99.067 202.113 99.067 202.113 100.872 192.232 100.872ZM172.51 98.782 174.544 98.782 174.544 104.33C178.166 103.735 181.814 102.804 185.488 101.537L186.038 103.342C182.238 104.647 178.407 105.609 174.544 106.23L174.544 108.89C174.544 109.979 174.715 110.695 175.057 111.037 175.398 111.379 176.114 111.55 177.204 111.55 180.37 111.55 183.22 111.461 185.753 111.284L185.811 113.127C182.771 113.317 179.857 113.412 177.07 113.412 175.322 113.412 174.126 113.092 173.48 112.452 172.833 111.813 172.51 110.613 172.51 108.852ZM218.251 97.68 220.208 97.68 220.208 100.644 224.292 100.644 224.292 102.392 220.208 102.392 220.208 110.524C220.208 111.74 220.052 112.5 219.742 112.804 219.432 113.108 218.669 113.26 217.452 113.26 216.553 113.26 215.489 113.197 214.26 113.07L214.374 111.284C215.527 111.411 216.49 111.474 217.262 111.474 217.693 111.474 217.965 111.417 218.079 111.303 218.193 111.189 218.251 110.91 218.251 110.467L218.251 104.406C215.54 107.117 212.658 109.34 209.605 111.075L208.712 109.479C211.955 107.655 214.97 105.293 217.757 102.392L208.712 102.392 208.712 100.644 218.251 100.644ZM183.473 97.509C184.234 98.8517 184.797 99.884 185.165 100.606L183.626 101.347C183.043 100.245 182.479 99.2317 181.934 98.307ZM203.328 96.977C203.861 97.889 204.367 98.8263 204.848 99.789L203.443 100.492C202.986 99.6053 202.48 98.6743 201.923 97.699ZM186.324 96.806C186.969 97.946 187.546 98.9973 188.053 99.96L186.475 100.72C185.943 99.7067 185.367 98.6743 184.747 97.623ZM206.064 96.692C206.66 97.718 207.179 98.6743 207.622 99.561L206.178 100.264C205.798 99.542 205.279 98.592 204.62 97.414Z" stroke="#FFFFFF" stroke-width="8" stroke-linejoin="round" stroke-miterlimit="10" fill="#B45F06" fill-rule="evenodd"/><text fill="#000000" fill-opacity="0" font-family="Arial,Arial_MSFontService,sans-serif" font-size="17.29" x="172.51" y="111.821">ビデオ</text><path d="M231.607 98.972 233.697 98.972 233.697 112.842 231.607 112.842 231.607 101.442 231.57 101.442 227.997 104.672 227.238 102.962Z" stroke="#FFFFFF" stroke-width="8" stroke-linejoin="round" stroke-miterlimit="10" fill="#B45F06" fill-rule="evenodd"/><text fill="#000000" fill-opacity="0" font-family="Arial,Arial_MSFontService,sans-serif" font-size="13.87" x="227.238" y="111.108">1</text><path d="M376.778 109.327C376.056 109.327 375.495 109.45 375.096 109.697 374.697 109.944 374.498 110.233 374.498 110.562 374.498 111.031 374.78 111.407 375.343 111.692 375.907 111.977 376.79 112.12 377.994 112.12 378.361 112.12 378.627 112.114 378.792 112.101 379.058 111.582 379.191 111.132 379.191 110.752 379.191 109.802 378.386 109.327 376.778 109.327ZM282.094 106.116C280.751 106.243 279.712 106.547 278.978 107.028 278.243 107.509 277.876 108.067 277.876 108.7 277.876 109.346 278.117 109.976 278.598 110.59 279.079 111.205 279.548 111.512 280.004 111.512 280.802 111.512 281.499 109.713 282.094 106.116ZM358.348 103.912C357.702 103.912 357.173 104.102 356.761 104.482 356.35 104.862 356.144 105.337 356.144 105.907 356.144 106.477 356.35 106.952 356.761 107.332 357.173 107.712 357.702 107.902 358.348 107.902 358.981 107.902 359.5 107.712 359.906 107.332 360.311 106.952 360.514 106.477 360.514 105.907 360.514 105.337 360.311 104.862 359.906 104.482 359.5 104.102 358.981 103.912 358.348 103.912ZM265.424 100.796C263.727 101.062 262.378 101.755 261.377 102.876 260.376 103.997 259.876 105.388 259.876 107.047 259.876 108.124 260.101 109.058 260.55 109.849 261 110.641 261.44 111.037 261.871 111.037 262.073 111.037 262.283 110.951 262.498 110.78 262.713 110.609 262.957 110.286 263.229 109.811 263.502 109.336 263.761 108.732 264.008 107.997 264.255 107.262 264.505 106.274 264.759 105.033 265.012 103.792 265.234 102.379 265.424 100.796ZM266.906 98.877C269.047 98.877 270.817 99.5483 272.216 100.891 273.616 102.234 274.316 103.937 274.316 106.002 274.316 108.155 273.768 109.887 272.672 111.198 271.577 112.509 270.098 113.247 268.236 113.412L267.856 111.607C269.312 111.43 270.437 110.856 271.228 109.887 272.02 108.918 272.416 107.623 272.416 106.002 272.416 104.545 271.947 103.326 271.01 102.344 270.073 101.363 268.869 100.815 267.4 100.701 267.108 103.133 266.763 105.179 266.364 106.838 265.965 108.497 265.519 109.758 265.025 110.619 264.531 111.48 264.034 112.082 263.533 112.424 263.033 112.766 262.479 112.937 261.871 112.937 260.896 112.937 260.003 112.367 259.192 111.227 258.381 110.087 257.976 108.694 257.976 107.047 257.976 104.628 258.799 102.661 260.446 101.147 262.092 99.6338 264.246 98.877 266.906 98.877ZM371.914 98.687 383.694 98.687 383.751 100.378 376.949 104.292 376.968 104.311C377.969 104.108 378.918 104.007 379.818 104.007 381.73 104.007 383.14 104.362 384.045 105.071 384.951 105.78 385.404 106.838 385.404 108.244 385.404 110.017 384.764 111.385 383.485 112.348 382.206 113.311 380.375 113.792 377.994 113.792 376.157 113.792 374.78 113.513 373.861 112.956 372.943 112.399 372.484 111.601 372.484 110.562 372.484 109.764 372.864 109.089 373.624 108.538 374.384 107.987 375.461 107.712 376.854 107.712 378.31 107.712 379.359 107.956 379.998 108.443 380.638 108.931 380.958 109.637 380.958 110.562 380.958 110.942 380.882 111.354 380.73 111.797 382.427 111.278 383.276 110.169 383.276 108.472 383.276 107.471 382.959 106.74 382.326 106.277 381.693 105.815 380.628 105.584 379.134 105.584 376.588 105.584 373.978 106.287 371.306 107.693L370.584 106.306 380.16 100.378 380.16 100.34 371.914 100.34ZM277.268 98.687 284.754 98.687 284.754 100.397C284.564 102.259 284.418 103.564 284.317 104.311 285.47 104.362 286.66 104.558 287.889 104.9 287.927 103.621 287.946 102.056 287.946 100.207L289.846 100.207C289.846 102.538 289.814 104.305 289.751 105.508 290.789 105.913 291.822 106.433 292.848 107.066L291.974 108.662C291.201 108.181 290.416 107.763 289.618 107.408 289.516 108.447 289.371 109.311 289.181 110.001 288.991 110.692 288.712 111.284 288.345 111.778 287.978 112.272 287.582 112.68 287.157 113.003 286.733 113.326 286.154 113.684 285.419 114.077L284.412 112.462C285.045 112.133 285.53 111.848 285.865 111.607 286.201 111.366 286.518 111.037 286.815 110.619 287.113 110.201 287.331 109.688 287.471 109.08 287.61 108.472 287.718 107.687 287.794 106.724 286.54 106.344 285.292 106.122 284.051 106.059 283.861 107.313 283.655 108.38 283.433 109.26 283.212 110.141 282.984 110.85 282.749 111.388 282.515 111.927 282.249 112.348 281.951 112.652 281.654 112.956 281.356 113.159 281.058 113.26 280.761 113.361 280.409 113.412 280.004 113.412 279.016 113.412 278.082 112.927 277.201 111.958 276.321 110.989 275.881 109.903 275.881 108.7 275.881 107.573 276.46 106.597 277.619 105.774 278.778 104.951 280.358 104.469 282.36 104.33 282.525 103.127 282.677 101.816 282.816 100.397L277.268 100.397ZM300.296 97.414 302.177 97.851C301.898 98.6237 301.677 99.219 301.512 99.637L309.606 99.637 309.606 101.252 300.866 101.252C300.663 101.746 300.372 102.417 299.992 103.266L300.03 103.285C300.866 102.943 301.62 102.772 302.291 102.772 303.887 102.772 304.957 103.557 305.502 105.128 306.743 104.862 308.137 104.634 309.682 104.444L309.853 106.097C308.232 106.3 306.908 106.521 305.882 106.762 306.021 107.712 306.091 108.82 306.091 110.087L304.096 110.087C304.096 108.96 304.058 108.022 303.982 107.275 301.398 108.073 300.106 109.01 300.106 110.087 300.106 110.391 300.163 110.651 300.277 110.866 300.391 111.081 300.606 111.284 300.923 111.474 301.24 111.664 301.718 111.806 302.357 111.901 302.997 111.996 303.798 112.044 304.761 112.044 306.027 112.044 307.592 111.898 309.454 111.607L309.625 113.317C308.105 113.57 306.483 113.697 304.761 113.697 302.405 113.697 300.707 113.421 299.669 112.87 298.63 112.319 298.111 111.455 298.111 110.277 298.111 108.276 299.954 106.718 303.64 105.603 303.462 105.147 303.238 104.833 302.965 104.662 302.693 104.491 302.341 104.406 301.911 104.406 301.252 104.406 300.461 104.761 299.536 105.47 298.611 106.179 297.686 107.186 296.762 108.491L295.185 107.465C296.692 105.4 297.914 103.329 298.852 101.252L295.356 101.252 295.356 99.637 299.517 99.637C299.821 98.8263 300.081 98.0853 300.296 97.414ZM360.286 97.357 362.186 97.357 362.186 99.637 367.316 99.637 367.316 101.252 362.186 101.252 362.186 105.204C362.464 105.926 362.604 106.762 362.604 107.712 362.604 109.612 362.078 111.059 361.027 112.053 359.975 113.048 358.246 113.691 355.84 113.982L355.536 112.196C357.36 111.968 358.658 111.588 359.431 111.056 360.203 110.524 360.653 109.745 360.78 108.719 360.78 108.706 360.783 108.694 360.789 108.681 360.796 108.668 360.799 108.656 360.799 108.643L360.761 108.624C360.128 109.283 359.209 109.612 358.006 109.612 356.904 109.612 355.995 109.26 355.279 108.557 354.564 107.854 354.206 106.971 354.206 105.907 354.206 104.843 354.564 103.959 355.279 103.256 355.995 102.553 356.904 102.202 358.006 102.202 358.842 102.202 359.589 102.392 360.248 102.772L360.286 102.772 360.286 101.252 350.976 101.252 350.976 99.637 360.286 99.637ZM321.101 97.357 323.191 97.357 323.191 103.627 326.991 103.627 326.991 98.972 328.986 98.972 328.986 105.337 323.191 105.337 323.191 111.55 327.846 111.55 327.846 106.762 329.841 106.762 329.841 114.457 327.846 114.457 327.846 113.317 316.446 113.317 316.446 114.457 314.451 114.457 314.451 106.762 316.446 106.762 316.446 111.55 321.101 111.55 321.101 105.337 315.306 105.337 315.306 98.972 317.301 98.972 317.301 103.627 321.101 103.627ZM246.12 97.262 248.172 97.262 248.172 100.264 255.601 100.264 255.601 102.012 249.255 102.012C250.787 104.951 253.162 107.826 256.38 110.638L255.297 112.367C252.46 109.884 250.085 106.971 248.172 103.627L248.172 109.84 252.238 109.84 252.238 111.55 248.172 111.55 248.172 114.742 246.12 114.742 246.12 111.55 242.054 111.55 242.054 109.84 246.12 109.84 246.12 103.627C244.207 106.971 241.832 109.884 238.995 112.367L237.912 110.638C241.129 107.826 243.504 104.951 245.037 102.012L238.691 102.012 238.691 100.264 246.12 100.264ZM337.6 97.224 339.69 97.224C339.69 98.288 339.671 99.2823 339.633 100.207L347.518 100.207C347.518 102.348 347.496 104.153 347.451 105.622 347.407 107.091 347.322 108.345 347.195 109.384 347.068 110.423 346.929 111.233 346.777 111.816 346.625 112.399 346.4 112.855 346.102 113.184 345.805 113.513 345.504 113.722 345.2 113.811 344.896 113.9 344.49 113.944 343.984 113.944 343.3 113.944 342.001 113.862 340.089 113.697L340.051 111.797C341.723 111.962 342.863 112.044 343.471 112.044 343.826 112.044 344.107 111.939 344.316 111.73 344.525 111.521 344.719 111.078 344.896 110.4 345.073 109.723 345.2 108.709 345.276 107.36 345.352 106.011 345.396 104.229 345.409 102.012L339.538 102.012C339.297 105.115 338.733 107.573 337.847 109.384 336.96 111.195 335.579 112.829 333.705 114.286L332.299 112.766C333.958 111.499 335.177 110.087 335.956 108.529 336.735 106.971 337.232 104.799 337.448 102.012L332.394 102.012 332.394 100.207 337.543 100.207C337.581 99.295 337.6 98.3007 337.6 97.224Z" stroke="#FFFFFF" stroke-width="8" stroke-linejoin="round" stroke-miterlimit="10" fill="#B45F06" fill-rule="evenodd"/><text fill="#000000" fill-opacity="0" font-family="Arial,Arial_MSFontService,sans-serif" font-size="17.518" x="237.912" y="112.552">本のみを出力する</text><path d="M203.584 120.224 205.484 120.224C202.761 122.605 201.399 125.531 201.399 129.002 201.399 132.473 202.761 135.399 205.484 137.78L203.584 137.78C202.241 136.665 201.209 135.351 200.487 133.837 199.765 132.324 199.404 130.712 199.404 129.002 199.404 127.292 199.765 125.68 200.487 124.166 201.209 122.653 202.241 121.339 203.584 120.224Z" stroke="#FFFFFF" stroke-width="8" stroke-linejoin="round" stroke-miterlimit="10" fill="#B45F06" fill-rule="evenodd"/><text fill="#000000" fill-opacity="0" font-family="Arial,Arial_MSFontService,sans-serif" font-size="17.556" x="199.404" y="135.585">（</text><path d="M212.941 121.972 215.031 121.972 215.031 135.842 212.941 135.842 212.941 124.442 212.903 124.442 209.331 127.672 208.571 125.962Z" stroke="#FFFFFF" stroke-width="8" stroke-linejoin="round" stroke-miterlimit="10" fill="#B45F06" fill-rule="evenodd"/><text fill="#000000" fill-opacity="0" font-family="Arial,Arial_MSFontService,sans-serif" font-size="13.87" x="208.571" y="134.108">1</text><path d="M352.544 131.719C353.925 133.188 355.16 134.582 356.249 135.899L354.539 137.229C353.399 135.823 352.196 134.461 350.929 133.144ZM321.783 131.7C320.2 131.7 319.408 132.257 319.408 133.372 319.408 133.942 319.617 134.385 320.035 134.702 320.453 135.019 321.036 135.177 321.783 135.177 322.695 135.177 323.319 135 323.655 134.645 323.99 134.29 324.158 133.625 324.158 132.65L324.158 132.346C323.31 131.915 322.518 131.7 321.783 131.7ZM301.427 129.116C300.084 129.243 299.046 129.547 298.311 130.028 297.576 130.509 297.209 131.067 297.209 131.7 297.209 132.346 297.45 132.976 297.931 133.59 298.412 134.205 298.881 134.512 299.337 134.512 300.135 134.512 300.832 132.713 301.427 129.116ZM243.052 125.335C243.508 126.893 243.964 128.578 244.42 130.389L242.577 130.788C242.172 129.116 241.728 127.431 241.247 125.734ZM251.735 124.879 253.635 124.974C253.559 128.85 252.79 131.652 251.327 133.382 249.864 135.11 247.39 136.178 243.907 136.583L243.527 134.835C245.098 134.62 246.38 134.309 247.375 133.904 248.369 133.499 249.195 132.906 249.854 132.128 250.513 131.348 250.981 130.386 251.26 129.24 251.539 128.093 251.697 126.64 251.735 124.879ZM247.213 124.822C247.631 126.279 248.087 128.02 248.581 130.047L246.738 130.446C246.345 128.787 245.889 127.045 245.37 125.221ZM283.757 123.796C282.06 124.062 280.711 124.755 279.71 125.876 278.71 126.997 278.209 128.388 278.209 130.047 278.209 131.124 278.434 132.058 278.884 132.85 279.333 133.641 279.773 134.037 280.204 134.037 280.407 134.037 280.616 133.951 280.831 133.781 281.046 133.609 281.29 133.286 281.563 132.811 281.835 132.337 282.095 131.732 282.342 130.997 282.589 130.262 282.839 129.274 283.092 128.033 283.345 126.792 283.567 125.379 283.757 123.796ZM324.158 123.112C326.311 123.112 328.218 123.239 329.877 123.492L329.668 125.202C328.68 125.025 327.477 124.917 326.058 124.879L326.058 131.415C327.312 132.137 328.604 133.081 329.934 134.246L328.718 135.614C327.806 134.854 326.907 134.151 326.02 133.505 325.906 134.658 325.51 135.494 324.833 136.013 324.155 136.532 323.138 136.792 321.783 136.792 320.44 136.792 319.392 136.485 318.639 135.87 317.885 135.256 317.508 134.423 317.508 133.372 317.508 132.346 317.879 131.535 318.62 130.94 319.361 130.345 320.415 130.047 321.783 130.047 322.543 130.047 323.335 130.199 324.158 130.503ZM285.239 121.877C287.38 121.877 289.15 122.548 290.55 123.891 291.949 125.234 292.649 126.937 292.649 129.002 292.649 131.155 292.101 132.887 291.006 134.199 289.91 135.509 288.431 136.247 286.569 136.412L286.189 134.607C287.646 134.43 288.77 133.856 289.562 132.887 290.353 131.918 290.749 130.623 290.749 129.002 290.749 127.545 290.28 126.326 289.343 125.344 288.406 124.363 287.202 123.815 285.733 123.701 285.442 126.133 285.097 128.179 284.698 129.838 284.299 131.497 283.852 132.758 283.358 133.619 282.864 134.48 282.367 135.082 281.867 135.424 281.366 135.766 280.812 135.937 280.204 135.937 279.229 135.937 278.336 135.367 277.525 134.227 276.714 133.087 276.309 131.694 276.309 130.047 276.309 127.628 277.133 125.661 278.779 124.147 280.426 122.634 282.579 121.877 285.239 121.877ZM296.601 121.687 304.087 121.687 304.087 123.397C303.897 125.259 303.751 126.564 303.65 127.311 304.803 127.362 305.993 127.558 307.222 127.9 307.26 126.621 307.279 125.056 307.279 123.207L309.179 123.207C309.179 125.538 309.147 127.305 309.084 128.508 310.123 128.913 311.155 129.433 312.181 130.066L311.307 131.662C310.534 131.181 309.749 130.763 308.951 130.408 308.85 131.447 308.704 132.311 308.514 133.001 308.324 133.692 308.045 134.284 307.678 134.778 307.311 135.272 306.915 135.68 306.491 136.003 306.066 136.326 305.487 136.684 304.752 137.077L303.745 135.462C304.378 135.133 304.863 134.848 305.199 134.607 305.534 134.366 305.851 134.037 306.149 133.619 306.446 133.201 306.665 132.688 306.804 132.08 306.943 131.472 307.051 130.687 307.127 129.724 305.873 129.344 304.625 129.122 303.384 129.059 303.194 130.313 302.988 131.38 302.767 132.26 302.545 133.141 302.317 133.85 302.083 134.388 301.848 134.927 301.582 135.348 301.285 135.652 300.987 135.956 300.689 136.159 300.392 136.26 300.094 136.361 299.742 136.412 299.337 136.412 298.349 136.412 297.415 135.927 296.535 134.958 295.654 133.99 295.214 132.903 295.214 131.7 295.214 130.573 295.794 129.597 296.953 128.774 298.112 127.951 299.692 127.469 301.693 127.33 301.858 126.127 302.01 124.816 302.149 123.397L296.601 123.397ZM260.539 121.212 262.629 121.212 262.629 126.646C266.062 127.469 269.558 128.54 273.117 129.857L272.471 131.757C269.14 130.516 265.859 129.496 262.629 128.698L262.629 136.792 260.539 136.792ZM337.287 121.098C337.616 123.099 338.066 125.202 338.636 127.406 340.511 126.659 343.019 125.924 346.16 125.202L346.54 127.007C342.537 127.906 339.688 128.802 337.99 129.695 336.293 130.589 335.444 131.561 335.444 132.612 335.444 134.259 337.122 135.082 340.479 135.082 342.328 135.082 344.317 134.924 346.445 134.607L346.673 136.412C344.507 136.729 342.443 136.887 340.479 136.887 335.729 136.887 333.354 135.462 333.354 132.612 333.354 130.94 334.469 129.502 336.698 128.299 336.154 126.171 335.672 123.878 335.254 121.421ZM226.104 120.642 228.061 120.642C228.061 121.389 228.036 122.371 227.985 123.587L235.319 123.587 235.319 125.107C235.319 127.096 235.284 128.736 235.215 130.028 235.145 131.32 235.04 132.387 234.901 133.229 234.762 134.072 234.553 134.705 234.274 135.13 233.995 135.554 233.688 135.842 233.353 135.994 233.017 136.146 232.583 136.222 232.051 136.222 231.05 136.222 229.79 136.14 228.27 135.975L228.441 134.132C229.657 134.259 230.67 134.322 231.481 134.322 231.962 134.322 232.317 134.154 232.545 133.818 232.773 133.483 232.944 132.729 233.058 131.557 233.172 130.386 233.229 128.552 233.229 126.057L233.229 125.392 227.871 125.392C227.63 128.191 227.089 130.417 226.247 132.07 225.404 133.723 224.109 135.228 222.361 136.583L221.107 135.196C222.627 134.031 223.754 132.748 224.489 131.348 225.224 129.949 225.705 127.963 225.933 125.392L221.259 125.392 221.259 123.587 226.047 123.587C226.085 122.7 226.104 121.719 226.104 120.642ZM343.69 120.585C344.45 121.928 345.014 122.96 345.381 123.682L343.842 124.423C343.259 123.321 342.696 122.308 342.151 121.383ZM317.451 120.338 319.237 120.566C318.958 121.706 318.743 122.555 318.591 123.112L321.954 123.112 321.954 124.822 318.097 124.822C317.122 128.115 315.969 131.314 314.639 134.417L312.891 133.809C314.221 130.655 315.317 127.659 316.178 124.822L313.309 124.822 313.309 123.112 316.691 123.112C316.868 122.504 317.122 121.579 317.451 120.338ZM346.54 119.882C347.186 121.022 347.763 122.073 348.269 123.036L346.692 123.796C346.16 122.783 345.584 121.75 344.963 120.699Z" stroke="#FFFFFF" stroke-width="8" stroke-linejoin="round" stroke-miterlimit="10" fill="#B45F06" fill-rule="evenodd"/><text fill="#000000" fill-opacity="0" font-family="Arial,Arial_MSFontService,sans-serif" font-size="17.347" x="221.107" y="135.061">カットのみなど、</text><path d="M204.45 154.194C205.109 154.827 205.932 155.397 206.92 155.904 207.883 155.435 208.687 154.865 209.333 154.194ZM297.203 153.7C295.62 153.7 294.828 154.257 294.828 155.372 294.828 155.942 295.037 156.385 295.455 156.702 295.873 157.019 296.456 157.177 297.203 157.177 298.115 157.177 298.739 157 299.075 156.645 299.41 156.29 299.578 155.625 299.578 154.65L299.578 154.346C298.729 153.915 297.938 153.7 297.203 153.7ZM218.244 153.662C218.067 154.017 217.82 154.447 217.503 154.954 218.06 155.106 218.643 155.296 219.251 155.524 219.758 154.992 220.157 154.371 220.448 153.662ZM217.313 150.964 219.308 151.173C219.232 151.388 219.118 151.699 218.966 152.104L223.773 152.104 223.773 153.662 222.405 153.662C222.126 154.574 221.664 155.423 221.018 156.208 221.487 156.411 222.082 156.689 222.804 157.044L221.968 158.602C221.005 158.108 220.239 157.734 219.669 157.481 218.339 158.482 216.705 159.121 214.767 159.4L214.235 157.785C215.616 157.57 216.768 157.209 217.693 156.702 216.832 156.398 215.888 156.119 214.862 155.866 215.369 155.106 215.799 154.371 216.154 153.662L214.273 153.662 214.273 152.104 216.876 152.104C216.889 152.053 217.034 151.673 217.313 150.964ZM201.961 150.869C201.657 151.388 201.309 151.927 200.916 152.484 201.258 152.889 201.549 153.257 201.79 153.586 202.461 153.079 203.05 152.535 203.557 151.952L201.961 151.952ZM203.804 149.52 203.804 150.584 210.017 150.584 210.017 149.52ZM201.961 148.456C201.834 148.621 201.632 148.868 201.353 149.197L200.593 148.589C200.188 149.501 199.808 150.223 199.453 150.755 199.656 150.983 199.808 151.16 199.909 151.287 200.378 150.628 200.764 149.982 201.068 149.349L201.961 149.786ZM203.804 147.297 203.804 148.247 210.017 148.247 210.017 147.297ZM225.92 146.632C225.819 146.936 225.654 147.379 225.426 147.962L226.357 147.81C226.623 149.925 227.022 151.635 227.554 152.94 228.238 151.458 228.707 149.355 228.96 146.632ZM299.578 145.112C301.732 145.112 303.638 145.239 305.297 145.492L305.088 147.202C304.1 147.025 302.897 146.917 301.478 146.879L301.478 153.415C302.732 154.137 304.024 155.081 305.354 156.246L304.138 157.614C303.226 156.854 302.327 156.151 301.44 155.505 301.326 156.658 300.93 157.494 300.253 158.013 299.575 158.532 298.558 158.792 297.203 158.792 295.86 158.792 294.812 158.485 294.059 157.87 293.305 157.256 292.928 156.423 292.928 155.372 292.928 154.346 293.299 153.535 294.04 152.94 294.781 152.345 295.835 152.047 297.203 152.047 297.963 152.047 298.755 152.199 299.578 152.503ZM340.58 144.694C341.885 147.785 342.968 150.989 343.829 154.308L341.986 154.745C341.125 151.414 340.061 148.266 338.794 145.302ZM309.401 144.618 311.339 144.846C310.769 146.847 310.484 148.963 310.484 151.192 310.484 152.712 310.744 153.994 311.263 155.039 311.783 156.084 312.302 156.607 312.821 156.607 313.176 156.607 313.638 156.221 314.208 155.448 314.778 154.675 315.342 153.573 315.899 152.142L317.704 152.845C317.071 154.644 316.282 156.053 315.339 157.072 314.395 158.092 313.505 158.602 312.669 158.602 311.63 158.602 310.674 157.88 309.8 156.436 308.926 154.992 308.489 153.244 308.489 151.192 308.489 148.823 308.793 146.632 309.401 144.618ZM321.162 144.504C322.011 146.151 322.66 148.022 323.11 150.118 323.559 152.215 323.784 154.378 323.784 156.607L321.789 156.607C321.789 154.542 321.574 152.503 321.143 150.489 320.712 148.475 320.111 146.67 319.338 145.074ZM273.351 143.117 275.384 143.174C275.219 146.721 275.137 149.552 275.137 151.667 275.137 152.782 275.201 153.687 275.327 154.384 275.454 155.081 275.669 155.622 275.973 156.008 276.277 156.395 276.632 156.654 277.037 156.787 277.443 156.921 277.968 156.987 278.614 156.987 281.198 156.987 283.225 155.093 284.694 151.306L286.499 151.99C285.663 154.283 284.571 156.005 283.222 157.158 281.873 158.311 280.337 158.887 278.614 158.887 276.549 158.887 275.115 158.371 274.311 157.339 273.506 156.306 273.104 154.416 273.104 151.667 273.104 149.159 273.186 146.309 273.351 143.117ZM216.078 142.49C216.635 143.326 217.129 144.2 217.56 145.112L216.078 145.834C215.559 144.821 215.071 143.953 214.615 143.231ZM221.873 142.452 223.412 143.06C223.045 143.959 222.551 144.871 221.93 145.796L220.448 145.093C221.056 144.168 221.531 143.288 221.873 142.452ZM239.854 142.357 241.944 142.357 241.944 148.627 245.744 148.627 245.744 143.972 247.739 143.972 247.739 150.337 241.944 150.337 241.944 156.55 246.599 156.55 246.599 151.762 248.594 151.762 248.594 159.457 246.599 159.457 246.599 158.317 235.199 158.317 235.199 159.457 233.204 159.457 233.204 151.762 235.199 151.762 235.199 156.55 239.854 156.55 239.854 150.337 234.059 150.337 234.059 143.972 236.054 143.972 236.054 148.627 239.854 148.627ZM218.054 142.357 219.954 142.357 219.954 145.967 223.317 145.967 223.317 147.544 221.037 147.544C221.468 147.911 222 148.412 222.633 149.045L221.493 150.356C221.012 149.773 220.499 149.197 219.954 148.627L219.954 150.774 218.054 150.774 218.054 148.646C217.243 149.659 216.281 150.565 215.166 151.363L214.102 149.976C215.28 149.191 216.255 148.38 217.028 147.544L214.387 147.544 214.387 145.967 218.054 145.967ZM331.346 142.338 333.189 142.547C332.999 143.776 332.771 145.011 332.505 146.252L333.949 146.252C334.57 146.252 335.035 146.252 335.346 146.252 335.656 146.252 335.998 146.287 336.372 146.356 336.745 146.426 337.005 146.49 337.151 146.546 337.296 146.604 337.461 146.743 337.645 146.964 337.828 147.186 337.942 147.386 337.987 147.563 338.031 147.74 338.082 148.057 338.139 148.513 338.196 148.969 338.224 149.387 338.224 149.767 338.224 150.147 338.224 150.717 338.224 151.477 338.224 153.871 337.936 155.657 337.36 156.835 336.783 158.013 336.026 158.602 335.089 158.602 333.974 158.602 332.664 158.279 331.156 157.633L331.764 155.904C333.094 156.436 334.076 156.702 334.709 156.702 334.886 156.702 335.064 156.594 335.241 156.379 335.418 156.164 335.583 155.841 335.735 155.41 335.887 154.979 336.008 154.4 336.096 153.671 336.185 152.943 336.229 152.117 336.229 151.192 336.229 150.685 336.229 150.324 336.229 150.109 336.229 149.894 336.216 149.634 336.191 149.33 336.166 149.026 336.147 148.83 336.134 148.741 336.121 148.652 336.071 148.532 335.982 148.38 335.893 148.228 335.824 148.143 335.773 148.123 335.722 148.104 335.605 148.073 335.422 148.028 335.238 147.984 335.083 147.962 334.956 147.962 334.829 147.962 334.62 147.962 334.329 147.962L332.106 147.962C331.207 151.648 330.01 155.239 328.515 158.735L326.767 158.07C328.173 154.764 329.3 151.395 330.149 147.962L327.014 147.962 327.014 146.252 330.567 146.252C330.896 144.783 331.156 143.478 331.346 142.338ZM292.871 142.338 294.657 142.566C294.378 143.706 294.163 144.555 294.011 145.112L297.374 145.112 297.374 146.822 293.517 146.822C292.542 150.115 291.389 153.314 290.059 156.417L288.311 155.809C289.641 152.655 290.737 149.659 291.598 146.822L288.729 146.822 288.729 145.112 292.111 145.112C292.288 144.504 292.542 143.579 292.871 142.338ZM345.394 142.224 347.294 142.224C348.637 143.339 349.669 144.653 350.391 146.166 351.113 147.68 351.474 149.292 351.474 151.002 351.474 152.712 351.113 154.324 350.391 155.837 349.669 157.351 348.637 158.665 347.294 159.78L345.394 159.78C348.117 157.399 349.479 154.473 349.479 151.002 349.479 147.531 348.117 144.605 345.394 142.224ZM257.353 142.224 259.443 142.224C259.443 143.288 259.424 144.282 259.386 145.207L267.271 145.207C267.271 147.348 267.249 149.153 267.205 150.622 267.16 152.091 267.075 153.345 266.948 154.384 266.821 155.423 266.682 156.233 266.53 156.816 266.378 157.399 266.153 157.855 265.856 158.184 265.558 158.513 265.257 158.722 264.953 158.811 264.649 158.9 264.244 158.944 263.737 158.944 263.053 158.944 261.755 158.862 259.842 158.697L259.804 156.797C261.476 156.962 262.616 157.044 263.224 157.044 263.579 157.044 263.861 156.939 264.07 156.73 264.279 156.521 264.472 156.078 264.649 155.4 264.826 154.723 264.953 153.709 265.029 152.36 265.105 151.011 265.149 149.229 265.162 147.012L259.291 147.012C259.05 150.115 258.487 152.573 257.6 154.384 256.714 156.195 255.333 157.829 253.458 159.286L252.052 157.766C253.711 156.499 254.931 155.087 255.71 153.529 256.489 151.971 256.986 149.799 257.201 147.012L252.147 147.012 252.147 145.207 257.296 145.207C257.334 144.295 257.353 143.301 257.353 142.224ZM225.255 142.148 227.041 142.376C226.889 143.212 226.699 144.048 226.471 144.884L231.848 144.884 231.848 146.632 230.784 146.632C230.467 150.242 229.739 152.991 228.599 154.878 229.359 155.929 230.442 156.892 231.848 157.766L230.993 159.305C229.498 158.406 228.333 157.437 227.497 156.398 226.547 157.462 225.274 158.431 223.678 159.305L222.671 157.766C224.33 156.841 225.584 155.841 226.433 154.764 225.698 153.396 225.141 151.642 224.761 149.501 224.432 150.198 224.071 150.869 223.678 151.515L222.12 150.527C223.463 148.348 224.508 145.555 225.255 142.148ZM203.196 141.939 205.039 142.243C204.938 142.585 204.811 142.971 204.659 143.402L212.601 143.402 212.601 145.074 203.975 145.074C203.848 145.353 203.709 145.631 203.557 145.91L212.031 145.91 212.031 151.952 205.761 151.952C205.584 152.205 205.387 152.459 205.172 152.712L211.67 152.712 211.67 154.194C210.973 155.106 209.998 155.942 208.744 156.702 209.859 157.12 211.252 157.494 212.924 157.823L212.392 159.457C210.416 159.064 208.573 158.463 206.863 157.652 205.039 158.437 202.892 159.039 200.422 159.457L199.776 157.861C201.828 157.557 203.589 157.158 205.058 156.664 204.209 156.119 203.462 155.537 202.816 154.916 202.069 155.486 201.34 155.948 200.631 156.303L199.605 154.916C199.681 154.878 199.922 154.751 200.327 154.536 200.01 154.118 199.586 153.58 199.054 152.921L199.054 159.552 197.097 159.552 197.097 153.548C196.54 154.08 195.919 154.58 195.235 155.049L194.684 153.016C196.799 151.483 198.3 149.514 199.187 147.107L195.159 147.107 195.159 145.302 197.097 145.302 197.097 142.452 199.054 142.452 199.054 145.302 201.201 145.302 201.201 146.176C202.037 144.871 202.702 143.459 203.196 141.939Z" stroke="#FFFFFF" stroke-width="8" stroke-linejoin="round" stroke-miterlimit="10" fill="#B45F06" fill-rule="evenodd"/><text fill="#000000" fill-opacity="0" font-family="Arial,Arial_MSFontService,sans-serif" font-size="17.841" x="194.684" y="157.55">複数出力しないか）</text><text fill="#B45F06" font-family="M PLUS 1p Medium,M PLUS 1p Medium_MSFontService,sans-serif" font-weight="500" font-size="19" transform="translate(169.695 113)">ビデオ</text><text fill="#B45F06" font-family="M PLUS 1p Medium,M PLUS 1p Medium_MSFontService,sans-serif" font-weight="500" font-size="19" transform="translate(225.695 113)">1</text><text fill="#B45F06" font-family="M PLUS 1p Medium,M PLUS 1p Medium_MSFontService,sans-serif" font-weight="500" font-size="19" transform="translate(237.528 113)">本のみを出力する</text><text fill="#B45F06" font-family="M PLUS 1p Medium,M PLUS 1p Medium_MSFontService,sans-serif" font-weight="500" font-size="19" transform="translate(188.362 136)">（</text><text fill="#B45F06" font-family="M PLUS 1p Medium,M PLUS 1p Medium_MSFontService,sans-serif" font-weight="500" font-size="19" transform="translate(207.028 136)">1</text><text fill="#B45F06" font-family="M PLUS 1p Medium,M PLUS 1p Medium_MSFontService,sans-serif" font-weight="500" font-size="19" transform="translate(218.862 136)">カットのみなど、</text><text fill="#B45F06" font-family="M PLUS 1p Medium,M PLUS 1p Medium_MSFontService,sans-serif" font-weight="500" font-size="19" transform="translate(194.282 158)">複数出力しないか）</text><path d="M529.494 291.206 545.074 291.206 545.074 293.201 529.494 293.201ZM473.779 289.97 488.599 289.97 488.599 290.35C488.599 296.228 484.66 299.413 476.781 299.908L476.477 298.102C479.34 297.925 481.636 297.346 483.365 296.364 485.094 295.382 486.123 293.859 486.452 291.794L473.779 291.794ZM562.364 288.773C563.479 291.231 564.41 293.587 565.157 295.841L563.352 296.411C562.63 294.233 561.718 291.934 560.616 289.514ZM461.441 287.272 461.992 290.312 469.516 288.773 469.877 290.559C469.649 291.611 469.241 292.643 468.652 293.656 468.063 294.67 467.376 295.518 466.59 296.202L465.146 294.948C466.426 293.796 467.312 292.478 467.806 290.996L462.315 292.098 463.683 299.755 461.707 300.098 460.339 292.497 456.843 293.219 456.482 291.434 460.016 290.711 459.465 287.615ZM475.204 285.087 487.364 285.087 487.364 286.892 475.204 286.892ZM560.255 284.365C561.015 285.708 561.579 286.74 561.946 287.462L560.407 288.203C559.825 287.102 559.261 286.088 558.716 285.163ZM496.769 284.118 498.707 284.251C498.657 284.847 498.562 285.442 498.422 286.037L506.934 286.037 506.934 286.417C506.934 290.737 505.93 293.941 503.923 296.031 501.915 298.121 498.707 299.35 494.299 299.717L494.014 297.912C497.713 297.558 500.392 296.617 502.051 295.091 503.711 293.565 504.629 291.148 504.806 287.842L497.909 287.842C497.162 289.92 495.902 291.794 494.128 293.466L492.722 292.231C493.85 291.155 494.762 289.917 495.458 288.517 496.155 287.117 496.592 285.651 496.769 284.118ZM444.664 284.042 444.93 287.234 451.276 287.007 451.352 288.811 445.082 289.02 445.443 293.486 452.036 293.257 452.112 295.062 445.595 295.29 445.994 300.23 443.904 300.382 443.486 295.348 436.532 295.576 436.456 293.77 443.334 293.542 442.973 289.096 437.292 289.305 437.216 287.5 442.821 287.292 442.574 284.194ZM515.579 284.023 517.479 284.156C517.429 284.663 517.34 285.227 517.213 285.848L526.029 285.848 526.029 286.607C526.029 290.927 525.025 294.132 523.018 296.221 521.01 298.311 517.802 299.54 513.394 299.908L513.109 298.102C515.326 297.887 517.15 297.482 518.581 296.887 520.013 296.291 521.146 295.449 521.982 294.359 519.804 293.257 517.866 292.333 516.168 291.585L517.08 289.837C519.196 290.775 521.159 291.706 522.97 292.63 523.528 291.313 523.844 289.654 523.92 287.652L516.719 287.652C515.959 289.831 514.712 291.737 512.976 293.371L511.627 292.137C512.717 291.098 513.603 289.872 514.287 288.46 514.971 287.048 515.402 285.569 515.579 284.023ZM563.105 283.662C563.751 284.802 564.328 285.854 564.834 286.816L563.257 287.576C562.725 286.563 562.149 285.531 561.528 284.479ZM552.731 283.548 554.574 283.757C554.384 284.986 554.156 286.221 553.89 287.462L555.334 287.462C555.955 287.462 556.42 287.462 556.731 287.462 557.041 287.462 557.383 287.497 557.757 287.567 558.13 287.637 558.39 287.7 558.536 287.757 558.681 287.814 558.846 287.953 559.03 288.175 559.213 288.397 559.327 288.596 559.372 288.773 559.416 288.951 559.467 289.267 559.524 289.723 559.581 290.18 559.609 290.598 559.609 290.977 559.609 291.357 559.609 291.927 559.609 292.688 559.609 295.081 559.321 296.867 558.745 298.046 558.168 299.223 557.412 299.812 556.474 299.812 555.36 299.812 554.049 299.49 552.541 298.843L553.149 297.115C554.479 297.646 555.461 297.912 556.094 297.912 556.272 297.912 556.449 297.805 556.626 297.589 556.804 297.374 556.968 297.051 557.12 296.62 557.272 296.19 557.393 295.61 557.481 294.882 557.57 294.154 557.614 293.327 557.614 292.402 557.614 291.896 557.614 291.535 557.614 291.319 557.614 291.104 557.602 290.844 557.576 290.54 557.551 290.236 557.532 290.04 557.519 289.951 557.507 289.863 557.456 289.742 557.367 289.59 557.279 289.438 557.209 289.353 557.158 289.334 557.108 289.315 556.99 289.283 556.807 289.239 556.623 289.195 556.468 289.172 556.341 289.172 556.215 289.172 556.006 289.172 555.714 289.172L553.491 289.172C552.592 292.858 551.395 296.449 549.9 299.945L548.152 299.28C549.558 295.974 550.686 292.605 551.534 289.172L548.399 289.172 548.399 287.462 551.952 287.462C552.282 285.993 552.541 284.688 552.731 283.548Z" stroke="#FFFFFF" stroke-width="8" stroke-linejoin="round" stroke-miterlimit="10" fill="#B45F06" fill-rule="evenodd"/><text fill="#000000" fill-opacity="0" font-family="Arial,Arial_MSFontService,sans-serif" font-size="16.834" x="436.456" y="298.278">キャラクターが</text><path d="M434.741 319.867 434.741 321.026C435.792 320.874 436.881 320.703 438.009 320.513L438.009 319.867ZM533.327 318.1C531.807 318.1 531.047 318.626 531.047 319.677 531.047 320.881 531.807 321.482 533.327 321.482 533.973 321.482 534.451 321.308 534.761 320.96 535.071 320.612 535.227 320.057 535.227 319.297L535.227 318.613C534.606 318.271 533.973 318.1 533.327 318.1ZM434.741 317.397 434.741 318.443 438.009 318.443 438.009 317.397ZM442.379 317.34C442.923 318.202 443.576 318.962 444.336 319.62 445.007 318.987 445.564 318.227 446.008 317.34ZM493.382 315.878 493.382 316.77 494.788 316.77 494.788 315.878ZM489.886 315.878 489.886 316.77 491.33 316.77 491.33 315.878ZM440.536 315.63 447.946 315.63 447.946 317.34C447.452 318.658 446.749 319.779 445.837 320.703 446.774 321.248 447.8 321.685 448.915 322.014L448.25 323.611C446.831 323.218 445.552 322.648 444.412 321.9 443.474 322.546 442.277 323.116 440.821 323.611L440.118 322.014C441.093 321.71 442.018 321.286 442.892 320.741 442.094 320.045 441.384 319.215 440.764 318.253L441.923 317.34 440.536 317.34ZM434.741 314.927 434.741 315.973 438.009 315.973 438.009 314.927ZM493.382 313.844 493.382 314.737 494.788 314.737 494.788 313.844ZM489.886 313.844 489.886 314.737 491.33 314.737 491.33 313.844ZM431.454 313.217 448.839 313.217 448.839 314.927 439.909 314.927 439.909 323.914 438.009 323.914 438.009 322.242C435.703 322.648 433.506 322.964 431.416 323.193L431.264 321.482C431.998 321.406 432.556 321.343 432.936 321.292L432.936 314.927 431.454 314.927ZM477.688 312.4 477.688 314.357 483.046 314.357 483.046 312.4ZM493.382 311.507 493.382 312.362 496.593 312.362 496.593 318.253 493.382 318.253 493.382 319.107 496.593 319.107 496.593 320.628 493.382 320.628 493.382 321.425C494.281 321.337 495.288 321.229 496.403 321.102L496.46 321.767C497.055 320.703 497.517 319.43 497.847 317.948 498.176 316.466 498.398 314.529 498.512 312.134L496.593 312.134 496.593 311.507ZM434.969 310.424 434.969 311.128 445.324 311.128 445.324 310.424ZM460.999 309.341C459.58 309.468 458.497 309.538 457.75 309.55L457.75 312.4 461.132 312.4C461.068 311.564 461.024 310.545 460.999 309.341ZM477.688 308.848 477.688 310.69 483.046 310.69 483.046 308.848ZM434.969 308.562 434.969 309.284 445.324 309.284 445.324 308.562ZM525.898 307.594 527.76 307.822C527.151 310.165 526.848 312.692 526.848 315.402 526.848 318.113 527.151 320.64 527.76 322.983L525.898 323.211C525.264 320.805 524.948 318.202 524.948 315.402 524.948 312.603 525.264 310 525.898 307.594ZM508.563 307.404 510.52 307.632C509.912 309.975 509.608 312.502 509.608 315.212 509.608 317.923 509.912 320.45 510.52 322.793L508.563 323.021C507.929 320.615 507.613 318.012 507.613 315.212 507.613 312.413 507.929 309.81 508.563 307.404ZM535.227 307.327 537.127 307.327 537.127 310.557 540.927 310.557 540.927 312.267 537.127 312.267 537.127 317.701C538.026 318.36 539.185 319.405 540.604 320.836L539.293 322.147C538.368 321.185 537.633 320.463 537.089 319.981 536.873 322.122 535.651 323.193 533.422 323.193 532.066 323.193 531.015 322.885 530.268 322.271 529.52 321.657 529.147 320.792 529.147 319.677 529.147 318.639 529.517 317.825 530.258 317.236 530.999 316.647 532.054 316.352 533.422 316.352 534.08 316.352 534.682 316.454 535.227 316.656L535.227 312.267 529.717 312.267 529.717 310.557 535.227 310.557ZM518.728 307.232 520.628 307.232 520.628 310.842 523.573 310.842 523.573 312.552 520.628 312.552 520.628 315.117C520.628 316.916 520.472 318.309 520.162 319.297 519.852 320.285 519.323 321.052 518.576 321.596 517.828 322.141 516.714 322.61 515.232 323.003L514.624 321.292C515.27 321.115 515.783 320.957 516.163 320.818 516.543 320.678 516.904 320.494 517.246 320.266 517.588 320.038 517.841 319.801 518.006 319.554 518.17 319.307 518.316 318.968 518.443 318.537 518.569 318.107 518.648 317.632 518.68 317.112 518.712 316.593 518.728 315.928 518.728 315.117L518.728 312.552 512.648 312.552 512.648 310.842 518.728 310.842ZM475.75 307.194 485.06 307.194 485.06 315.973 481.184 315.973C481.437 316.872 481.798 317.708 482.267 318.48 483.255 317.695 484.084 316.922 484.756 316.162L485.953 317.359C485.142 318.284 484.255 319.12 483.293 319.867 484.078 320.754 485.028 321.489 486.143 322.072L485.098 323.611C483.73 322.952 482.536 321.961 481.516 320.637 480.496 319.313 479.752 317.758 479.284 315.973L477.688 315.973 477.688 321.292C478.79 321.09 479.892 320.843 480.994 320.551L481.317 322.242C478.783 322.888 476.326 323.332 473.945 323.572L473.774 321.862C474.66 321.761 475.319 321.679 475.75 321.615ZM469.233 307.137 475.313 307.137 475.313 308.714C474.73 310.45 474.059 311.982 473.299 313.312 474.325 314.63 474.838 316.01 474.838 317.454 474.838 318.392 474.622 319.076 474.192 319.507 473.761 319.937 473.09 320.152 472.178 320.152L471.798 320.152 471.456 318.537 471.836 318.537C472.292 318.537 472.605 318.436 472.776 318.233 472.947 318.031 473.033 317.625 473.033 317.017 473.033 316.397 472.915 315.836 472.681 315.336 472.447 314.836 472 314.193 471.342 313.408 472.241 311.925 472.957 310.361 473.489 308.714L471.133 308.714 471.133 323.667 469.233 323.667ZM432.936 307.042 447.376 307.042 447.376 312.457 434.969 312.457 432.936 312.457ZM466.224 306.662 466.699 308.372C465.66 308.664 464.412 308.911 462.956 309.113 462.968 310.292 463.025 311.387 463.127 312.4L467.288 312.4 467.288 314.111 463.336 314.111C463.602 315.985 463.966 317.461 464.428 318.537 464.89 319.614 465.324 320.152 465.73 320.152 466.059 320.152 466.338 319.12 466.566 317.055L468.238 317.587C467.921 320.691 467.218 322.242 466.129 322.242 465.863 322.242 465.628 322.217 465.426 322.167L465.426 323.098 455.546 323.098 455.546 321.387 463.925 321.387C462.607 320.222 461.733 317.796 461.303 314.111L457.75 314.111 457.75 318.29C458.966 318.024 460.201 317.695 461.455 317.302L461.664 319.069C459.523 319.715 457.205 320.216 454.71 320.57L454.539 318.879C455.071 318.803 455.47 318.74 455.736 318.689L455.736 307.897C459.776 307.897 463.272 307.486 466.224 306.662ZM498.626 306.624 500.526 306.624C500.526 308.385 500.513 309.652 500.488 310.424L504.63 310.424 504.63 311.641C504.63 313.553 504.62 315.124 504.601 316.352 504.582 317.581 504.531 318.655 504.449 319.573 504.367 320.491 504.281 321.182 504.193 321.644 504.104 322.106 503.958 322.477 503.756 322.755 503.553 323.034 503.35 323.202 503.148 323.259 502.945 323.316 502.66 323.344 502.293 323.344 501.799 323.344 500.937 323.275 499.709 323.135L499.69 321.292C500.614 321.419 501.292 321.482 501.723 321.482 501.951 321.482 502.118 321.321 502.226 320.998 502.334 320.675 502.426 319.877 502.502 318.604 502.578 317.331 502.616 315.428 502.616 312.895L502.616 312.134 500.412 312.134C500.26 315.073 499.959 317.404 499.509 319.126 499.059 320.849 498.398 322.363 497.524 323.667L496.023 322.736C493.135 323.142 490.285 323.401 487.473 323.516L487.378 321.862C488.86 321.799 490.177 321.717 491.33 321.615L491.33 320.628 487.72 320.628 487.72 319.107 491.33 319.107 491.33 318.253 489.886 318.253 487.986 318.253 487.986 312.362 491.33 312.362 491.33 311.507 487.568 311.507 487.568 309.987 491.33 309.987 491.33 309.056C490.177 309.145 489.05 309.202 487.948 309.227L487.853 307.574C490.855 307.473 493.749 307.188 496.536 306.719L496.783 308.41C495.807 308.575 494.674 308.727 493.382 308.866L493.382 309.987 496.84 309.987 496.84 310.424 498.588 310.424C498.613 309.652 498.626 308.385 498.626 306.624ZM453.608 306.586 455.546 306.871C455.191 308.86 454.672 310.659 453.988 312.267L453.988 323.762 452.05 323.762 452.05 315.137C451.594 315.909 451.176 316.523 450.796 316.979L449.77 315.117C451.644 312.787 452.924 309.943 453.608 306.586ZM539.103 306.092C539.483 307.118 539.818 308.132 540.109 309.132L538.609 309.569C538.33 308.67 537.994 307.669 537.602 306.568ZM541.478 305.807C541.908 306.986 542.257 308.018 542.523 308.904L540.984 309.341C540.705 308.417 540.357 307.391 539.939 306.263Z" stroke="#FFFFFF" stroke-width="8" stroke-linejoin="round" stroke-miterlimit="10" fill="#B45F06" fill-rule="evenodd"/><text fill="#000000" fill-opacity="0" font-family="Arial,Arial_MSFontService,sans-serif" font-size="18.107" x="431.264" y="321.651">最低限動けば</text><path d="M550.161 309.702C548.742 309.702 547.602 310.187 546.741 311.156 545.879 312.125 545.449 313.445 545.449 315.117 545.449 316.789 545.879 318.11 546.741 319.079 547.602 320.048 548.742 320.533 550.161 320.533 551.579 320.533 552.719 320.048 553.581 319.079 554.442 318.11 554.873 316.789 554.873 315.117 554.873 313.445 554.442 312.125 553.581 311.156 552.719 310.187 551.579 309.702 550.161 309.702ZM559.176 308.182 561.266 308.182 561.266 314.262 561.304 314.262 566.776 308.182 569.246 308.182 563.166 314.832 569.436 322.052 566.966 322.052 561.304 315.402 561.266 315.402 561.266 322.052 559.176 322.052ZM550.161 307.992C552.238 307.992 553.897 308.638 555.139 309.93 556.38 311.223 557.001 312.951 557.001 315.117 557.001 317.283 556.38 319.012 555.139 320.305 553.897 321.596 552.238 322.242 550.161 322.242 548.083 322.242 546.424 321.596 545.183 320.305 543.941 319.012 543.321 317.283 543.321 315.117 543.321 312.951 543.941 311.223 545.183 309.93 546.424 308.638 548.083 307.992 550.161 307.992Z" stroke="#FFFFFF" stroke-width="8" stroke-linejoin="round" stroke-miterlimit="10" fill="#B45F06" fill-rule="evenodd"/><text fill="#000000" fill-opacity="0" font-family="Arial,Arial_MSFontService,sans-serif" font-size="14.25" x="543.321" y="320.461">OK</text><path d="M503.643 341.772 503.643 343.482 505.866 343.482 505.866 341.772ZM501.819 340.158 507.576 340.158 507.576 345.098 503.643 345.098 503.643 345.857 501.819 345.857ZM501.971 337.44 507.481 337.44 507.481 339.074 501.971 339.074ZM494.656 336.3 494.656 338.96 496.879 338.96 496.879 336.3ZM490.381 336.3 490.381 338.96 492.661 338.96 492.661 336.3ZM585.091 335.217 585.091 338.391 589.746 338.391 589.746 335.217ZM578.973 335.217 578.973 336.87C578.973 337.25 578.96 337.757 578.935 338.391L583.153 338.391 583.153 335.217ZM501.971 334.742 507.481 334.742 507.481 336.357 501.971 336.357ZM532.302 334.495C533.062 335.838 533.625 336.87 533.993 337.592L532.454 338.333C531.871 337.231 531.307 336.218 530.763 335.293ZM569.276 334.324 569.276 334.97C569.276 335.921 569.25 336.718 569.2 337.365L572.221 337.365 572.221 334.324ZM564.203 334.324 564.203 337.365 567.167 337.365C567.218 336.427 567.243 335.629 567.243 334.97L567.243 334.324ZM535.152 333.792C535.798 334.932 536.374 335.984 536.881 336.947L535.304 337.706C534.772 336.693 534.196 335.661 533.575 334.609ZM490.153 332.938C489.532 333.406 488.836 333.875 488.063 334.344L487.683 333.507 486.429 333.507C486.505 333.685 486.689 334.119 486.98 334.809 487.271 335.499 487.563 336.183 487.854 336.861 488.145 337.539 488.367 338.068 488.519 338.447L488.519 334.78 492.661 334.78 492.661 333.641 490.153 333.641ZM546.229 332.007C544.532 332.272 543.182 332.966 542.182 334.087 541.181 335.208 540.681 336.598 540.681 338.257 540.681 339.334 540.906 340.268 541.355 341.06 541.805 341.852 542.245 342.247 542.676 342.247 542.879 342.247 543.088 342.162 543.303 341.991 543.518 341.82 543.762 341.497 544.034 341.022 544.307 340.547 544.566 339.942 544.813 339.207 545.06 338.473 545.311 337.485 545.564 336.243 545.817 335.002 546.039 333.59 546.229 332.007ZM501.306 331.93 507.899 331.93 507.899 333.641 501.306 333.641ZM608.632 330.904C609.937 333.995 611.02 337.2 611.881 340.518L610.038 340.956C609.177 337.624 608.113 334.477 606.846 331.512ZM585.091 330.714 585.091 333.641 589.746 333.641 589.746 330.714ZM578.973 330.714 578.973 333.641 583.153 333.641 583.153 330.714ZM535.304 330.335 535.399 332.139C532.22 332.456 529.835 333.197 528.245 334.362 526.656 335.528 525.861 336.972 525.861 338.694 525.861 340.138 526.32 341.266 527.238 342.076 528.157 342.887 529.376 343.292 530.896 343.292 531.605 343.292 532.391 343.223 533.252 343.083L533.48 344.908C532.53 345.072 531.637 345.154 530.801 345.154 528.635 345.154 526.915 344.594 525.642 343.473 524.369 342.352 523.733 340.822 523.733 338.884 523.733 337.491 524.141 336.237 524.958 335.122 525.775 334.008 526.969 333.089 528.54 332.367L528.54 332.329C525.627 332.456 522.72 332.52 519.819 332.52L519.819 330.714C524.885 330.714 530.047 330.588 535.304 330.335ZM547.711 330.087C549.852 330.087 551.622 330.759 553.021 332.102 554.421 333.444 555.121 335.148 555.121 337.212 555.121 339.366 554.573 341.098 553.477 342.409 552.382 343.72 550.903 344.458 549.041 344.622L548.661 342.818C550.118 342.64 551.242 342.067 552.033 341.098 552.825 340.129 553.221 338.834 553.221 337.212 553.221 335.756 552.752 334.537 551.815 333.555 550.878 332.573 549.674 332.025 548.205 331.911 547.914 334.344 547.568 336.389 547.169 338.048 546.77 339.708 546.324 340.968 545.83 341.829 545.336 342.691 544.839 343.292 544.338 343.634 543.838 343.977 543.284 344.147 542.676 344.147 541.701 344.147 540.807 343.577 539.997 342.438 539.186 341.297 538.781 339.904 538.781 338.257 538.781 335.838 539.604 333.872 541.251 332.358 542.898 330.844 545.051 330.087 547.711 330.087ZM428.149 329.992 430.182 329.992 430.182 335.54C433.805 334.945 437.453 334.014 441.126 332.747L441.677 334.552C437.877 335.857 434.045 336.82 430.182 337.44L430.182 340.1C430.182 341.19 430.353 341.905 430.695 342.247 431.037 342.589 431.753 342.76 432.842 342.76 436.009 342.76 438.859 342.672 441.392 342.494L441.449 344.337C438.409 344.527 435.496 344.622 432.709 344.622 430.961 344.622 429.764 344.303 429.118 343.663 428.472 343.023 428.149 341.823 428.149 340.062ZM419.751 329.802 421.879 329.802 421.879 334.837C421.879 338.068 421.119 340.487 419.599 342.095 418.079 343.704 415.647 344.705 412.303 345.098L411.866 343.216C414.817 342.824 416.869 342.016 418.022 340.794 419.175 339.572 419.751 337.605 419.751 334.895ZM410.023 329.802 412.113 329.802 412.113 338.257 410.023 338.257ZM493.649 329.745C492.864 330.607 492.059 331.386 491.236 332.082L496.081 332.082C495.207 331.348 494.396 330.569 493.649 329.745ZM508.393 329.517 518.729 329.517 518.729 331.284 515.176 331.284 515.176 335.787 518.311 335.787 518.311 337.555 515.176 337.555 515.176 343.331 518.881 343.331 518.881 345.098 508.051 345.098 508.051 343.331 509.476 343.331 509.476 333.944 511.376 333.944 511.376 343.331 513.143 343.331 513.143 331.284 508.393 331.284ZM404.601 329.327C404.259 329.327 403.968 329.448 403.727 329.688 403.486 329.929 403.366 330.22 403.366 330.562 403.366 330.904 403.486 331.196 403.727 331.436 403.968 331.677 404.259 331.797 404.601 331.797 404.943 331.797 405.234 331.677 405.475 331.436 405.716 331.196 405.836 330.904 405.836 330.562 405.836 330.22 405.716 329.929 405.475 329.688 405.234 329.448 404.943 329.327 404.601 329.327ZM501.819 329.232 507.519 329.232 507.519 330.904 501.819 330.904ZM576.959 329.042 591.741 329.042 591.741 342.912C591.741 344.167 591.598 344.939 591.313 345.23 591.028 345.522 590.284 345.667 589.081 345.667 588.802 345.667 587.947 345.636 586.516 345.572L586.421 343.9C586.738 343.913 587.08 343.929 587.447 343.948 587.814 343.967 588.096 343.983 588.292 343.995 588.489 344.008 588.638 344.014 588.739 344.014 589.22 344.014 589.508 343.964 589.603 343.862 589.698 343.761 589.746 343.476 589.746 343.007L589.746 339.967 585.091 339.967 585.091 345.287 583.153 345.287 583.153 339.967 578.821 339.967C578.694 341.196 578.457 342.263 578.108 343.169 577.76 344.075 577.276 344.958 576.655 345.819L575.002 344.508C575.737 343.457 576.246 342.333 576.531 341.136 576.816 339.939 576.959 338.251 576.959 336.072ZM473.319 328.928C473.509 329.574 473.794 330.581 474.174 331.949 474.909 331.785 475.593 331.702 476.226 331.702 477.48 331.702 478.49 332.082 479.256 332.842 480.023 333.602 480.406 334.616 480.406 335.882 480.406 337.263 479.994 338.343 479.171 339.122 478.348 339.901 477.239 340.29 475.846 340.29 474.985 340.29 474.136 340.195 473.3 340.005L473.49 338.238C474.263 338.403 474.985 338.486 475.656 338.486 476.492 338.486 477.16 338.261 477.66 337.811 478.161 337.361 478.411 336.75 478.411 335.977 478.411 335.192 478.196 334.584 477.765 334.154 477.334 333.723 476.726 333.507 475.941 333.507 475.561 333.507 475.124 333.564 474.63 333.678 474.997 335.11 475.213 335.946 475.276 336.186L473.471 336.718C473.167 335.578 472.939 334.736 472.787 334.191 472.04 334.432 471.007 334.799 469.69 335.293 470.551 338.143 471.444 341.342 472.369 344.888L470.431 345.363C469.519 341.88 468.651 338.758 467.828 335.996 467.461 336.136 466.169 336.636 463.952 337.497L463.268 335.787C464.408 335.331 465.751 334.812 467.296 334.229 467.03 333.368 466.618 332.076 466.061 330.353L467.961 329.764C468.683 332.019 469.082 333.279 469.158 333.546 470.602 333.026 471.653 332.665 472.312 332.462 472.147 331.867 471.856 330.86 471.438 329.441ZM439.112 328.719C439.872 330.062 440.436 331.094 440.803 331.816L439.264 332.557C438.681 331.456 438.118 330.442 437.573 329.517ZM560.213 328.586 562.094 328.928C561.803 330.613 561.391 332.146 560.859 333.526L560.859 345.762 558.921 345.762 558.921 337.27C558.427 338.118 557.958 338.809 557.515 339.34L556.698 337.06C558.395 334.704 559.567 331.88 560.213 328.586ZM599.398 328.548 601.241 328.757C601.051 329.986 600.823 331.221 600.557 332.462L602.001 332.462C602.622 332.462 603.087 332.462 603.397 332.462 603.708 332.462 604.05 332.497 604.423 332.567 604.797 332.637 605.057 332.7 605.202 332.757 605.348 332.814 605.513 332.953 605.696 333.175 605.88 333.397 605.994 333.596 606.038 333.773 606.083 333.951 606.133 334.267 606.19 334.723 606.247 335.18 606.276 335.598 606.276 335.977 606.276 336.357 606.276 336.927 606.276 337.688 606.276 340.081 605.988 341.867 605.411 343.046 604.835 344.223 604.078 344.812 603.141 344.812 602.026 344.812 600.715 344.49 599.208 343.843L599.816 342.115C601.146 342.646 602.128 342.912 602.761 342.912 602.938 342.912 603.116 342.805 603.293 342.589 603.47 342.374 603.635 342.051 603.787 341.62 603.939 341.19 604.059 340.61 604.148 339.882 604.237 339.154 604.281 338.327 604.281 337.402 604.281 336.896 604.281 336.535 604.281 336.319 604.281 336.104 604.268 335.844 604.243 335.54 604.218 335.236 604.199 335.04 604.186 334.951 604.173 334.863 604.123 334.742 604.034 334.59 603.945 334.438 603.876 334.353 603.825 334.334 603.774 334.315 603.657 334.283 603.473 334.239 603.29 334.195 603.135 334.172 603.008 334.172 602.881 334.172 602.672 334.172 602.381 334.172L600.158 334.172C599.259 337.858 598.062 341.449 596.567 344.945L594.819 344.28C596.225 340.974 597.352 337.605 598.201 334.172L595.066 334.172 595.066 332.462 598.619 332.462C598.948 330.993 599.208 329.688 599.398 328.548ZM567.243 328.473 569.276 328.473 569.276 329.954 574.691 329.954 574.691 331.664 569.276 331.664 569.276 332.747 574.159 332.747 574.159 340.062 572.221 340.062 572.221 338.922 569.048 338.922C568.858 340.24 568.516 341.329 568.022 342.19 569.745 343.128 571.999 343.654 574.786 343.767L574.539 345.516C571.562 345.427 569.01 344.781 566.882 343.577 565.907 344.413 564.336 345.059 562.17 345.516L561.543 343.805C563.202 343.413 564.406 342.951 565.153 342.418 564.368 341.76 563.677 340.974 563.082 340.062L564.697 339.112C565.153 339.822 565.704 340.461 566.35 341.031 566.654 340.474 566.869 339.771 566.996 338.922L564.203 338.922 562.303 338.922 562.303 332.747 567.243 332.747 567.243 331.664 562.189 331.664 562.189 329.954 567.243 329.954ZM492.718 328.473 494.599 328.473C496.182 330.106 497.975 331.519 499.976 332.71L499.254 334.344C498.557 333.913 497.867 333.444 497.183 332.938L497.183 333.641 494.656 333.641 494.656 334.78 498.779 334.78 498.779 340.443 494.96 340.443C495.302 341.19 495.897 341.861 496.746 342.456 497.595 343.052 498.665 343.533 499.957 343.9L499.235 345.667C498.019 345.275 496.936 344.727 495.986 344.024 495.036 343.321 494.301 342.539 493.782 341.677 493.212 342.539 492.43 343.321 491.435 344.024 490.441 344.727 489.323 345.275 488.082 345.667L487.36 343.9C489.944 343.153 491.603 342 492.338 340.443L490.381 340.443 488.519 340.443 488.519 339.017 487.341 339.891C487.214 339.524 486.866 338.606 486.296 337.137L486.296 345.762 484.396 345.762 484.396 338.504C483.978 339.822 483.49 340.968 482.933 341.943L481.736 340.062C482.965 337.934 483.807 335.749 484.263 333.507L482.173 333.507 482.173 331.797 484.396 331.797 484.396 328.662 486.296 328.662 486.296 331.797 487.911 331.797 487.911 332.367C489.672 331.278 491.274 329.98 492.718 328.473ZM614.446 328.434 616.346 328.434C617.689 329.549 618.721 330.863 619.443 332.377 620.165 333.891 620.526 335.503 620.526 337.212 620.526 338.922 620.165 340.534 619.443 342.048 618.721 343.562 617.689 344.876 616.346 345.99L614.446 345.99C617.169 343.609 618.531 340.683 618.531 337.212 618.531 333.742 617.169 330.816 614.446 328.434ZM384.556 328.434 386.456 328.434C383.733 330.816 382.371 333.742 382.371 337.212 382.371 340.683 383.733 343.609 386.456 345.99L384.556 345.99C383.213 344.876 382.181 343.562 381.459 342.048 380.737 340.534 380.376 338.922 380.376 337.212 380.376 335.503 380.737 333.891 381.459 332.377 382.181 330.863 383.213 329.549 384.556 328.434ZM458.967 328.188C459.499 329.099 460.006 330.037 460.487 330.999L459.556 331.474 459.556 332.31C458.669 334.375 457.371 336.345 455.661 338.219 457.574 339.967 459.404 341.734 461.152 343.52L459.765 344.869C457.941 343.007 456.123 341.24 454.312 339.568 452.095 341.646 449.6 343.356 446.826 344.698L445.933 343.064C448.618 341.697 450.936 340.091 452.887 338.248 454.838 336.405 456.326 334.426 457.352 332.31L447.586 332.31 447.586 330.467 458.435 330.467C458.22 330.062 457.928 329.543 457.561 328.909ZM441.962 328.016C442.608 329.156 443.184 330.208 443.691 331.171L442.114 331.93C441.582 330.917 441.006 329.885 440.385 328.833ZM461.703 327.902C462.298 328.928 462.818 329.885 463.261 330.771L461.817 331.474C461.437 330.753 460.918 329.802 460.259 328.624ZM404.601 327.902C405.336 327.902 405.963 328.162 406.482 328.681 407.001 329.201 407.261 329.828 407.261 330.562 407.261 331.297 407.001 331.924 406.482 332.443 405.963 332.963 405.336 333.223 404.601 333.223L404.525 333.223C404.221 336.82 403.068 339.553 401.067 341.421 399.066 343.289 396.133 344.42 392.27 344.812L391.909 342.969C395.405 342.602 397.989 341.608 399.661 339.986 401.333 338.365 402.27 335.921 402.473 332.652L390.256 332.652 390.256 330.753 401.941 330.753 401.941 330.562C401.941 329.828 402.201 329.201 402.72 328.681 403.239 328.162 403.866 327.902 404.601 327.902Z" stroke="#FFFFFF" stroke-width="8" stroke-linejoin="round" stroke-miterlimit="10" fill="#B45F06" fill-rule="evenodd"/><text fill="#000000" fill-opacity="0" font-family="Arial,Arial_MSFontService,sans-serif" font-size="18.088" x="380.376" y="343.729">（プリビズや検証での使用か）</text><text fill="#B45F06" font-family="M PLUS 1p Medium,M PLUS 1p Medium_MSFontService,sans-serif" font-weight="500" font-size="19" transform="translate(434.667 299)">キャラクターが</text><text fill="#B45F06" font-family="M PLUS 1p Medium,M PLUS 1p Medium_MSFontService,sans-serif" font-weight="500" font-size="19" transform="translate(430.5 322)">最低限動けば</text><text fill="#B45F06" font-family="M PLUS 1p Medium,M PLUS 1p Medium_MSFontService,sans-serif" font-weight="500" font-size="19" transform="translate(542.5 322)">OK</text><text fill="#B45F06" font-family="M PLUS 1p Medium,M PLUS 1p Medium_MSFontService,sans-serif" font-weight="500" font-size="19" transform="translate(369.333 344)">（プリビズや検証での使用か）</text><path d="M700.184 303.256 700.184 304.415C701.235 304.263 702.325 304.092 703.452 303.902L703.452 303.256ZM722.053 302.743 722.053 303.959 727.069 303.959 727.069 302.743ZM756.716 301.641 756.716 302.439 766.406 302.439 766.406 301.641ZM700.184 300.786 700.184 301.831 703.452 301.831 703.452 300.786ZM707.822 300.729C708.367 301.59 709.019 302.35 709.779 303.009 710.45 302.375 711.008 301.615 711.451 300.729ZM745.316 300.463 745.316 304.681 748.793 304.681 748.793 300.463ZM736.329 300.463 736.329 304.681 739.806 304.681 739.806 300.463ZM854.656 299.836 855.891 300.976C855.384 301.381 855.036 301.704 854.846 301.945 854.656 302.185 854.561 302.413 854.561 302.629 854.561 303.148 854.897 303.572 855.568 303.902 856.239 304.231 857.139 304.396 858.266 304.396 859.444 304.396 860.704 304.269 862.047 304.016L862.275 305.726C860.932 305.979 859.596 306.106 858.266 306.106 856.569 306.106 855.21 305.799 854.19 305.184 853.171 304.57 852.661 303.781 852.661 302.819 852.661 301.844 853.326 300.849 854.656 299.836ZM756.716 299.551 756.716 300.349 766.406 300.349 766.406 299.551ZM705.979 299.019 713.389 299.019 713.389 300.729C712.895 302.046 712.192 303.167 711.28 304.092 712.217 304.637 713.243 305.073 714.358 305.403L713.693 306.999C712.274 306.606 710.995 306.036 709.855 305.289 708.918 305.935 707.721 306.505 706.264 306.999L705.561 305.403C706.536 305.099 707.461 304.674 708.335 304.13 707.537 303.433 706.828 302.603 706.207 301.641L707.366 300.729 705.979 300.729ZM743.321 298.829 750.826 298.829 750.826 306.999 748.793 306.999 748.793 306.239 745.316 306.239 745.316 306.999 743.321 306.999ZM734.296 298.829 741.801 298.829 741.801 306.999 739.806 306.999 739.806 306.239 736.329 306.239 736.329 306.999 734.296 306.999ZM716.581 298.753 732.541 298.753 732.541 304.111C732.541 305.365 732.411 306.137 732.151 306.429 731.892 306.72 731.211 306.866 730.109 306.866 729.792 306.866 729.001 306.834 727.734 306.771L727.677 305.441 722.053 305.441 722.053 306.201 720.153 306.201 720.153 301.223 728.969 301.223 728.969 305.08C729.184 305.092 729.412 305.099 729.653 305.099 730.096 305.099 730.356 305.061 730.432 304.985 730.508 304.909 730.546 304.649 730.546 304.206L730.546 300.406 718.576 300.406 718.576 306.923 716.581 306.923ZM700.184 298.316 700.184 299.361 703.452 299.361 703.452 298.316ZM756.716 297.461 756.716 298.259 766.406 298.259 766.406 297.461ZM696.897 296.606 714.282 296.606 714.282 298.316 705.352 298.316 705.352 307.303 703.452 307.303 703.452 305.631C701.147 306.036 698.949 306.353 696.859 306.581L696.707 304.871C697.442 304.795 697.999 304.732 698.379 304.681L698.379 298.316 696.897 298.316ZM861.876 296.036 861.876 297.746C859.267 297.746 856.721 297.904 854.238 298.221L854.124 296.511C856.645 296.194 859.229 296.036 861.876 296.036ZM784.912 295.884C785.672 297.227 786.236 298.259 786.603 298.981L785.064 299.722C784.481 298.62 783.918 297.607 783.373 296.682ZM720.799 295.219 720.799 296.511 728.323 296.511 728.323 295.219ZM787.762 295.181C788.408 296.321 788.984 297.372 789.491 298.335L787.914 299.095C787.382 298.081 786.806 297.049 786.185 295.998ZM764.012 294.383C763.835 295.054 763.619 295.573 763.366 295.941L765.969 295.941 765.969 294.383ZM756.07 294.383C755.943 294.94 755.772 295.46 755.557 295.941L758.046 295.941 758.046 294.383ZM700.412 293.813 700.412 294.516 710.767 294.516 710.767 293.813ZM718.766 293.756 730.356 293.756 730.356 297.936 720.799 297.936 718.766 297.936ZM867.063 292.217 869.001 292.445C868.431 294.446 868.146 296.561 868.146 298.791 868.146 300.311 868.406 301.593 868.925 302.638 869.444 303.683 869.964 304.206 870.483 304.206 870.838 304.206 871.3 303.819 871.87 303.047 872.44 302.274 873.004 301.172 873.561 299.741L875.366 300.444C874.733 302.242 873.944 303.652 873 304.671 872.057 305.691 871.167 306.201 870.331 306.201 869.292 306.201 868.336 305.479 867.462 304.035 866.588 302.591 866.151 300.843 866.151 298.791 866.151 296.422 866.455 294.231 867.063 292.217ZM738.856 292.141 738.856 295.979 746.266 295.979 746.266 292.141ZM878.824 292.103C879.673 293.749 880.322 295.621 880.771 297.717 881.221 299.814 881.446 301.977 881.446 304.206L879.451 304.206C879.451 302.141 879.236 300.102 878.805 298.088 878.374 296.074 877.773 294.269 877 292.673ZM700.412 291.951 700.412 292.673 710.767 292.673 710.767 291.951ZM787.914 291.723 788.009 293.528C784.83 293.844 782.445 294.585 780.855 295.751 779.266 296.916 778.471 298.36 778.471 300.083 778.471 301.527 778.93 302.654 779.849 303.465 780.767 304.275 781.986 304.681 783.506 304.681 784.215 304.681 785.001 304.611 785.862 304.472L786.09 306.296C785.14 306.46 784.247 306.543 783.411 306.543 781.245 306.543 779.526 305.982 778.253 304.861 776.979 303.74 776.343 302.211 776.343 300.273 776.343 298.879 776.751 297.625 777.568 296.511 778.385 295.396 779.579 294.478 781.15 293.756L781.15 293.718C778.237 293.844 775.33 293.908 772.429 293.908L772.429 292.103C777.496 292.103 782.657 291.976 787.914 291.723ZM831.013 290.716 833.046 290.773C832.881 294.319 832.799 297.15 832.799 299.266 832.799 300.38 832.862 301.286 832.989 301.983 833.116 302.68 833.331 303.221 833.635 303.607 833.939 303.994 834.294 304.253 834.699 304.386 835.104 304.519 835.63 304.586 836.276 304.586 838.86 304.586 840.887 302.692 842.356 298.905L844.161 299.589C843.325 301.882 842.232 303.604 840.883 304.757 839.534 305.909 837.999 306.486 836.276 306.486 834.211 306.486 832.777 305.97 831.972 304.937 831.168 303.905 830.766 302.014 830.766 299.266 830.766 296.758 830.848 293.908 831.013 290.716ZM736.766 290.469 748.356 290.469 748.356 297.556 738.856 297.556 736.766 297.556ZM698.379 290.431 712.819 290.431 712.819 295.846 700.412 295.846 698.379 295.846ZM761.39 290.051 761.865 291.609C760.206 291.964 758.375 292.198 756.374 292.312 756.374 292.375 756.371 292.467 756.365 292.587 756.358 292.708 756.349 292.799 756.336 292.863L761.846 292.863 761.846 294.383 760.003 294.383 760.003 295.941 762.701 295.941 761.352 295.447C762.099 294.408 762.473 292.863 762.473 290.811 765.032 290.747 767.318 290.494 769.332 290.051L769.807 291.609C768.148 291.964 766.317 292.198 764.316 292.312 764.316 292.375 764.313 292.467 764.306 292.587 764.3 292.708 764.291 292.799 764.278 292.863L770.301 292.863 770.301 294.383 767.926 294.383 767.926 295.941 768.496 295.941 768.496 303.959 765.418 303.959C767.153 304.503 768.73 305.111 770.149 305.783L769.256 307.322C767.647 306.511 765.627 305.726 763.195 304.966L763.613 303.959 759.509 303.959 759.946 304.814C758.451 305.751 756.368 306.543 753.695 307.189L752.992 305.593C754.841 305.137 756.494 304.592 757.951 303.959L756.716 303.959 754.626 303.959 754.626 297.537C754.398 297.841 754.145 298.132 753.866 298.411L752.859 296.435C753.454 295.763 753.882 294.984 754.141 294.098 754.401 293.211 754.531 292.115 754.531 290.811 757.09 290.747 759.376 290.494 761.39 290.051ZM850.571 290.032 852.471 290.203C852.433 290.418 852.392 290.649 852.347 290.896 852.303 291.143 852.252 291.419 852.195 291.723 852.138 292.027 852.097 292.261 852.072 292.426L858.836 292.426 858.836 294.136 851.749 294.136C850.888 298.404 849.767 302.515 848.386 306.467L846.486 306.03C847.816 302.217 848.918 298.253 849.792 294.136L847.056 294.136 847.056 292.426 850.134 292.426C850.337 291.362 850.482 290.564 850.571 290.032ZM797.516 289.956 799.606 289.956 799.606 296.226 803.406 296.226 803.406 291.571 805.401 291.571 805.401 297.936 799.606 297.936 799.606 304.149 804.261 304.149 804.261 299.361 806.256 299.361 806.256 307.056 804.261 307.056 804.261 305.916 792.861 305.916 792.861 307.056 790.866 307.056 790.866 299.361 792.861 299.361 792.861 304.149 797.516 304.149 797.516 297.936 791.721 297.936 791.721 291.571 793.716 291.571 793.716 296.226 797.516 296.226ZM815.015 289.823 817.105 289.823C817.105 290.887 817.086 291.881 817.048 292.806L824.933 292.806C824.933 294.947 824.911 296.751 824.866 298.221 824.822 299.69 824.737 300.944 824.61 301.983 824.483 303.021 824.344 303.832 824.192 304.415 824.04 304.997 823.815 305.453 823.517 305.783 823.22 306.112 822.919 306.321 822.615 306.41 822.311 306.499 821.906 306.543 821.399 306.543 820.715 306.543 819.417 306.46 817.504 306.296L817.466 304.396C819.138 304.56 820.278 304.643 820.886 304.643 821.241 304.643 821.522 304.538 821.731 304.329 821.94 304.12 822.134 303.677 822.311 302.999 822.488 302.322 822.615 301.308 822.691 299.959 822.767 298.61 822.811 296.827 822.824 294.611L816.953 294.611C816.712 297.714 816.149 300.171 815.262 301.983 814.375 303.794 812.995 305.428 811.12 306.885L809.714 305.365C811.373 304.098 812.592 302.686 813.371 301.128 814.15 299.57 814.648 297.397 814.863 294.611L809.809 294.611 809.809 292.806 814.958 292.806C814.996 291.894 815.015 290.9 815.015 289.823ZM723.516 289.671 725.606 289.671 725.606 291.229 733.016 291.229 733.016 292.939 716.106 292.939 716.106 291.229 723.516 291.229Z" stroke="#FFFFFF" stroke-width="8" stroke-linejoin="round" stroke-miterlimit="10" fill="#B45F06" fill-rule="evenodd"/><text fill="#000000" fill-opacity="0" font-family="Arial,Arial_MSFontService,sans-serif" font-size="17.651" x="696.707" y="305.115">最高品質で出力したい</text><path d="M688.881 313.811 690.781 313.811C688.311 316.205 687.076 319.131 687.076 322.589 687.076 326.059 688.311 328.992 690.781 331.386L688.881 331.386C687.665 330.271 686.727 328.954 686.069 327.434 685.41 325.914 685.081 324.299 685.081 322.589 685.081 320.879 685.41 319.267 686.069 317.753 686.727 316.24 687.665 314.926 688.881 313.811Z" stroke="#FFFFFF" stroke-width="8" stroke-linejoin="round" stroke-miterlimit="10" fill="#B45F06" fill-rule="evenodd"/><text fill="#000000" fill-opacity="0" font-family="Arial,Arial_MSFontService,sans-serif" font-size="17.575" x="685.081" y="329.189">(</text><path d="M736.074 324.603C735.238 324.603 734.633 324.723 734.26 324.964 733.886 325.204 733.699 325.572 733.699 326.066 733.699 326.611 733.889 327.032 734.269 327.329 734.649 327.627 735.188 327.776 735.884 327.776 736.834 327.776 737.483 327.595 737.832 327.234 738.18 326.873 738.354 326.199 738.354 325.211L738.354 325.154C737.506 324.786 736.746 324.603 736.074 324.603ZM775.784 320.936 777.209 322.114C776.639 322.62 776.196 323.133 775.879 323.653 775.563 324.172 775.404 324.596 775.404 324.926 775.404 326.154 776.639 326.769 779.109 326.769 780.414 326.769 781.801 326.598 783.27 326.256L783.555 328.004C782.048 328.396 780.566 328.593 779.109 328.593 777.349 328.593 775.958 328.26 774.939 327.595 773.919 326.93 773.409 326.04 773.409 324.926 773.409 324.368 773.618 323.729 774.036 323.007 774.454 322.285 775.037 321.594 775.784 320.936ZM761.325 318.884C762.085 320.227 762.649 321.259 763.016 321.981L761.477 322.722C760.895 321.62 760.331 320.607 759.786 319.682ZM764.175 318.181C764.821 319.321 765.398 320.372 765.904 321.335L764.327 322.095C763.795 321.081 763.219 320.049 762.598 318.998ZM774.929 315.369 783.042 315.369 783.042 317.136 774.929 317.136ZM764.327 314.723 764.422 316.528C761.243 316.844 758.858 317.585 757.269 318.751 755.679 319.916 754.884 321.36 754.884 323.083 754.884 324.527 755.343 325.654 756.262 326.465 757.18 327.275 758.399 327.681 759.919 327.681 760.629 327.681 761.414 327.611 762.275 327.472L762.503 329.296C761.553 329.46 760.66 329.543 759.824 329.543 757.658 329.543 755.939 328.982 754.666 327.861 753.393 326.74 752.756 325.211 752.756 323.273 752.756 321.879 753.165 320.625 753.982 319.511 754.799 318.396 755.993 317.478 757.563 316.756L757.563 316.718C754.65 316.844 751.743 316.908 748.842 316.908L748.842 315.103C753.909 315.103 759.071 314.976 764.327 314.723ZM769.609 313.792 771.566 314.02C770.958 316.363 770.654 318.89 770.654 321.601 770.654 324.311 770.958 326.839 771.566 329.182L769.609 329.41C768.976 327.003 768.659 324.4 768.659 321.601 768.659 318.801 768.976 316.198 769.609 313.792ZM738.354 313.241 740.254 313.241 740.254 315.236 745.289 315.236 745.289 316.946 740.254 316.946 740.254 319.036 744.624 319.036 744.624 320.746 740.254 320.746 740.254 324.204C741.635 324.951 743.174 326.085 744.871 327.605L743.674 328.973C742.433 327.845 741.274 326.921 740.197 326.199 740.071 327.364 739.665 328.203 738.981 328.716 738.297 329.229 737.265 329.486 735.884 329.486 734.592 329.486 733.573 329.182 732.825 328.574 732.078 327.966 731.704 327.13 731.704 326.066 731.704 325.141 732.037 324.381 732.702 323.786 733.367 323.19 734.428 322.893 735.884 322.893 736.695 322.893 737.518 323.038 738.354 323.33L738.354 320.746 731.324 320.746 731.324 319.036 738.354 319.036 738.354 316.946 730.659 316.946 730.659 315.236 738.354 315.236ZM699.929 312.956 702.019 312.956 702.019 319.226 705.819 319.226 705.819 314.571 707.814 314.571 707.814 320.936 702.019 320.936 702.019 327.149 706.674 327.149 706.674 322.361 708.669 322.361 708.669 330.056 706.674 330.056 706.674 328.916 695.274 328.916 695.274 330.056 693.279 330.056 693.279 322.361 695.274 322.361 695.274 327.149 699.929 327.149 699.929 320.936 694.134 320.936 694.134 314.571 696.129 314.571 696.129 319.226 699.929 319.226ZM717.428 312.823 719.518 312.823C719.518 313.887 719.499 314.881 719.461 315.806L727.346 315.806C727.346 317.947 727.324 319.751 727.28 321.221 727.235 322.69 727.15 323.944 727.023 324.983 726.897 326.021 726.757 326.832 726.605 327.415 726.453 327.997 726.228 328.453 725.931 328.783 725.633 329.112 725.332 329.321 725.028 329.41 724.724 329.499 724.319 329.543 723.812 329.543 723.128 329.543 721.83 329.46 719.917 329.296L719.879 327.396C721.551 327.56 722.691 327.643 723.299 327.643 723.654 327.643 723.936 327.538 724.145 327.329 724.354 327.12 724.547 326.677 724.724 325.999 724.902 325.322 725.028 324.308 725.104 322.959 725.18 321.61 725.225 319.827 725.237 317.611L719.366 317.611C719.126 320.714 718.562 323.171 717.675 324.983 716.789 326.794 715.408 328.428 713.533 329.885L712.127 328.365C713.787 327.098 715.006 325.686 715.785 324.128 716.564 322.57 717.061 320.397 717.276 317.611L712.222 317.611 712.222 315.806 717.371 315.806C717.409 314.894 717.428 313.9 717.428 312.823Z" stroke="#FFFFFF" stroke-width="8" stroke-linejoin="round" stroke-miterlimit="10" fill="#B45F06" fill-rule="evenodd"/><text fill="#000000" fill-opacity="0" font-family="Arial,Arial_MSFontService,sans-serif" font-size="17.233" x="693.279" y="327.902">出力までに</text><path d="M814.793 316.053C813.767 316.053 813.003 316.468 812.503 317.297 812.003 318.127 811.753 319.53 811.753 321.506 811.753 323.482 812.003 324.885 812.503 325.714 813.003 326.544 813.767 326.959 814.793 326.959 815.819 326.959 816.582 326.544 817.082 325.714 817.582 324.885 817.833 323.482 817.833 321.506 817.833 319.53 817.582 318.127 817.082 317.297 816.582 316.468 815.819 316.053 814.793 316.053ZM802.793 316.053C801.767 316.053 801.003 316.468 800.503 317.297 800.003 318.127 799.753 319.53 799.753 321.506 799.753 323.482 800.003 324.885 800.503 325.714 801.003 326.544 801.767 326.959 802.793 326.959 803.819 326.959 804.582 326.544 805.082 325.714 805.582 324.885 805.833 323.482 805.833 321.506 805.833 319.53 805.582 318.127 805.082 317.297 804.582 316.468 803.819 316.053 802.793 316.053ZM790.603 314.571 792.693 314.571 792.693 328.441 790.603 328.441 790.603 317.041 790.565 317.041 786.993 320.271 786.233 318.561ZM814.793 314.381C816.503 314.381 817.785 314.944 818.64 316.072 819.495 317.199 819.923 319.01 819.923 321.506 819.923 324.001 819.495 325.812 818.64 326.94 817.785 328.067 816.503 328.631 814.793 328.631 813.083 328.631 811.8 328.067 810.945 326.94 810.09 325.812 809.663 324.001 809.663 321.506 809.663 319.01 810.09 317.199 810.945 316.072 811.8 314.944 813.083 314.381 814.793 314.381ZM802.793 314.381C804.503 314.381 805.785 314.944 806.64 316.072 807.495 317.199 807.923 319.01 807.923 321.506 807.923 324.001 807.495 325.812 806.64 326.94 805.785 328.067 804.503 328.631 802.793 328.631 801.083 328.631 799.8 328.067 798.945 326.94 798.09 325.812 797.663 324.001 797.663 321.506 797.663 319.01 798.09 317.199 798.945 316.072 799.8 314.944 801.083 314.381 802.793 314.381Z" stroke="#FFFFFF" stroke-width="8" stroke-linejoin="round" stroke-miterlimit="10" fill="#B45F06" fill-rule="evenodd"/><text fill="#000000" fill-opacity="0" font-family="Arial,Arial_MSFontService,sans-serif" font-size="14.25" x="786.233" y="326.85">100</text><path d="M830.53 322.475 830.53 325.135 833.076 325.135 833.076 322.475ZM885.086 316.395C883.388 316.661 882.039 317.354 881.039 318.475 880.038 319.596 879.538 320.986 879.538 322.646 879.538 323.723 879.762 324.657 880.212 325.448 880.662 326.24 881.102 326.636 881.533 326.636 881.735 326.636 881.944 326.55 882.16 326.379 882.375 326.208 882.619 325.885 882.891 325.41 883.163 324.935 883.423 324.331 883.67 323.596 883.917 322.861 884.167 321.873 884.421 320.632 884.674 319.391 884.896 317.978 885.086 316.395ZM830.853 315.483 832.753 315.483 832.753 317.421 835.546 317.421 835.546 318.979 832.753 318.979 832.753 320.936 834.938 320.936 834.938 326.693 830.53 326.693 828.668 326.693 828.668 320.936 830.853 320.936 830.853 318.979 828.06 318.979 828.06 317.421 830.853 317.421ZM827.433 315.103 827.433 327.719 836.173 327.719 836.173 315.103ZM886.568 314.476C888.708 314.476 890.478 315.147 891.878 316.49 893.278 317.832 893.978 319.536 893.978 321.601 893.978 323.754 893.43 325.486 892.334 326.797 891.238 328.108 889.76 328.846 887.898 329.011L887.518 327.206C888.974 327.029 890.098 326.455 890.89 325.486 891.682 324.517 892.078 323.222 892.078 321.601 892.078 320.144 891.609 318.925 890.672 317.943 889.734 316.962 888.531 316.414 887.062 316.3 886.77 318.732 886.425 320.777 886.026 322.437 885.627 324.096 885.181 325.357 884.687 326.218 884.193 327.079 883.695 327.681 883.195 328.023 882.695 328.365 882.141 328.536 881.533 328.536 880.557 328.536 879.664 327.966 878.854 326.826 878.043 325.686 877.638 324.292 877.638 322.646 877.638 320.227 878.461 318.26 880.108 316.746 881.754 315.233 883.908 314.476 886.568 314.476ZM847.155 314.457C848.713 316.053 850.112 317.769 851.354 319.606L849.815 320.708C848.561 318.858 847.186 317.18 845.692 315.673ZM841.683 313.583 843.678 313.583 843.678 325.306C845.388 324.698 847.275 323.925 849.34 322.988L849.853 324.698C846.585 326.243 843.361 327.447 840.182 328.308L839.726 326.541C840.359 326.376 841.011 326.186 841.683 325.971ZM825.476 313.431 838.168 313.431 838.168 330.151 836.173 330.151 836.173 329.353 827.433 329.353 827.433 330.151 825.476 330.151ZM865.117 313.393 867.207 313.393 867.207 318.371 874.218 318.371 874.218 320.119 867.207 320.119 867.207 327.643 875.263 327.643 875.263 329.429 858.353 329.429 858.353 327.643 865.117 327.643ZM854.166 313.393 856.218 313.393C856.218 315.99 856.088 318.152 855.828 319.881 855.568 321.61 855.122 323.077 854.489 324.28 855.679 325.648 856.838 327.193 857.966 328.916L856.37 329.961C855.445 328.568 854.451 327.231 853.387 325.952 852.652 326.839 851.721 327.614 850.594 328.279 849.466 328.944 848.06 329.581 846.376 330.189L845.407 328.536C846.673 328.067 847.725 327.621 848.561 327.196 849.397 326.772 850.163 326.262 850.86 325.667 851.556 325.072 852.101 324.441 852.494 323.776 852.886 323.111 853.216 322.266 853.482 321.24 853.748 320.214 853.928 319.09 854.023 317.867 854.118 316.645 854.166 315.154 854.166 313.393ZM823.31 312.994 825.096 313.108C824.855 314.957 824.526 316.585 824.108 317.991L824.108 330.151 822.17 330.151 822.17 321.886C821.904 322.43 821.593 322.988 821.239 323.558L820.46 321.354C821.853 319.01 822.803 316.224 823.31 312.994Z" stroke="#FFFFFF" stroke-width="8" stroke-linejoin="round" stroke-miterlimit="10" fill="#B45F06" fill-rule="evenodd"/><text fill="#000000" fill-opacity="0" font-family="Arial,Arial_MSFontService,sans-serif" font-size="17.195" x="820.46" y="328.039">個以上の</text><path d="M811.591 348.066C811.87 348.712 812.129 349.377 812.37 350.061L815.391 350.061C815.809 349.465 816.195 348.801 816.55 348.066ZM864.019 345.786 864.019 347.173 867.686 347.173 867.686 345.786ZM810.033 344.779 810.033 346.603 818.089 346.603 818.089 344.779ZM825.221 344.608C825.525 345.634 825.823 346.837 826.114 348.218L824.651 348.617C824.36 347.262 824.062 346.058 823.758 345.007ZM870.821 343.829 872.873 343.829 872.873 345.9C874.507 345.418 876.185 344.76 877.908 343.924L878.611 345.482C876.635 346.432 874.722 347.141 872.873 347.61L872.873 349.776C872.873 350.004 872.898 350.14 872.949 350.184 873 350.229 873.171 350.257 873.462 350.27 873.677 350.283 874.051 350.289 874.583 350.289 875.102 350.289 875.482 350.283 875.723 350.27 876.23 350.245 876.53 350.134 876.625 349.937 876.72 349.741 876.812 349.066 876.901 347.914L878.744 348.123C878.693 348.769 878.649 349.269 878.611 349.624 878.573 349.978 878.51 350.317 878.421 350.64 878.332 350.963 878.247 351.188 878.164 351.315 878.082 351.441 877.943 351.559 877.746 351.666 877.55 351.774 877.354 351.84 877.157 351.866 876.961 351.891 876.673 351.91 876.293 351.923 875.533 351.948 874.944 351.961 874.526 351.961 874.032 351.961 873.443 351.948 872.759 351.923 871.898 351.885 871.359 351.796 871.144 351.657 870.929 351.517 870.821 351.176 870.821 350.631ZM831.852 343.506C832.359 344.342 832.84 345.228 833.296 346.166L831.795 347.097C831.542 346.539 831.181 345.849 830.712 345.026 830.459 346.153 830.212 347.135 829.971 347.971L828.546 347.591C828.926 346.261 829.198 345.222 829.363 344.475L830.541 344.722C830.528 344.684 830.44 344.538 830.275 344.285ZM808.019 343.259 820.103 343.259 820.103 348.066 818.659 348.066C818.304 348.839 817.95 349.503 817.595 350.061L822.516 350.061 822.516 351.771 805.606 351.771 805.606 350.061 810.28 350.061C810.09 349.529 809.818 348.864 809.463 348.066L808.019 348.066ZM830.636 343.221 830.636 343.943 828.299 343.943 828.299 348.75C829.224 348.484 830.085 348.211 830.883 347.933L830.997 348.712C832.314 347.736 833.492 346.691 834.531 345.577L834.531 343.221ZM864.019 342.879 864.019 344.266 867.686 344.266 867.686 342.879ZM737.237 342.48 739.137 342.48C739.137 344.253 739.001 345.691 738.728 346.793 738.456 347.895 738.022 348.791 737.427 349.481 736.832 350.172 735.996 350.764 734.919 351.258L733.969 349.738C735.223 349.155 736.081 348.357 736.543 347.344 737.006 346.331 737.237 344.709 737.237 342.48ZM862.081 341.283 869.586 341.283 869.586 349.776C869.586 350.776 869.504 351.397 869.339 351.638 869.174 351.878 868.782 351.999 868.161 351.999 867.477 351.999 866.698 351.973 865.824 351.923L865.786 350.213C866.381 350.263 866.825 350.289 867.116 350.289 867.407 350.289 867.575 350.27 867.62 350.232 867.664 350.194 867.686 350.042 867.686 349.776L867.686 348.693 864.019 348.693 864.019 352.056 862.081 352.056ZM846.311 341.131 846.311 345.729 851.346 345.729 851.346 341.131ZM844.259 339.573 853.341 339.573 853.341 347.306 846.311 347.306 846.311 348.826 844.259 348.826ZM733.209 339.573 745.464 339.573 745.464 341.226C745.173 342.252 744.663 343.208 743.934 344.095 743.206 344.982 742.348 345.697 741.36 346.242L740.277 344.779C741.911 343.854 742.969 342.67 743.45 341.226L733.209 341.226ZM696.836 338.623 696.836 348.579 707.286 348.579 707.286 338.623ZM893.742 337.293C895.047 340.383 896.13 343.588 896.991 346.907L895.148 347.344C894.287 344.012 893.223 340.865 891.956 337.901ZM814.061 337.293C813.326 338.382 812.408 339.44 811.306 340.466L816.816 340.466C815.714 339.44 814.796 338.382 814.061 337.293ZM712.936 336.951 727.281 336.951 727.281 337.331C727.281 341.625 726.28 344.874 724.279 347.078 722.278 349.282 719.168 350.593 714.95 351.011L714.589 349.168C718.085 348.801 720.669 347.806 722.341 346.185 724.013 344.564 724.95 342.119 725.153 338.851L712.936 338.851ZM694.746 336.761 709.376 336.761 709.376 350.441 696.836 350.441 694.746 350.441ZM827.501 336.571C826.918 337.419 826.317 338.167 825.696 338.813L829.686 338.813C828.939 338.23 828.21 337.483 827.501 336.571ZM776.156 336.286 778.246 336.286 778.246 348.997C781.045 348.401 782.629 346.172 782.996 342.309L784.896 342.556C784.655 345.305 783.813 347.407 782.369 348.864 780.925 350.32 778.981 351.049 776.536 351.049L776.156 351.049ZM771.121 336.286 773.211 336.286 773.211 340.086C773.211 342.619 773.068 344.592 772.783 346.004 772.498 347.417 772.052 348.493 771.444 349.234 770.836 349.975 769.937 350.631 768.746 351.201L767.663 349.491C768.676 348.984 769.411 348.439 769.867 347.857 770.323 347.274 770.646 346.41 770.836 345.263 771.026 344.117 771.121 342.391 771.121 340.086ZM764.54 336.172 765.775 337.578C764.306 339.098 762.444 340.478 760.189 341.72L760.189 351.353 758.061 351.353 758.061 342.765C755.591 343.854 753.108 344.576 750.613 344.931L750.309 343.088C753.007 342.708 755.638 341.894 758.203 340.646 760.768 339.399 762.881 337.907 764.54 336.172ZM842.549 335.716 859.573 335.716 859.573 337.483 857.863 337.483 857.863 349.073C857.863 350.327 857.717 351.096 857.426 351.381 857.135 351.666 856.375 351.809 855.146 351.809 854.424 351.809 853.379 351.783 852.011 351.733L851.916 350.061C853.588 350.124 854.557 350.156 854.823 350.156 855.292 350.156 855.573 350.108 855.668 350.013 855.763 349.918 855.811 349.63 855.811 349.149L855.811 337.483 842.549 337.483ZM689.711 335.716C689.369 335.716 689.078 335.836 688.837 336.077 688.596 336.318 688.476 336.609 688.476 336.951 688.476 337.293 688.596 337.584 688.837 337.825 689.078 338.065 689.369 338.186 689.711 338.186 690.053 338.186 690.344 338.065 690.585 337.825 690.826 337.584 690.946 337.293 690.946 336.951 690.946 336.609 690.826 336.318 690.585 336.077 690.344 335.836 690.053 335.716 689.711 335.716ZM870.821 335.336 872.873 335.336 872.873 337.635C874.507 337.154 876.185 336.495 877.908 335.659L878.611 337.217C876.635 338.167 874.722 338.876 872.873 339.345L872.873 340.903C872.873 341.131 872.895 341.261 872.939 341.292 872.984 341.324 873.158 341.352 873.462 341.378 873.893 341.403 874.266 341.416 874.583 341.416 874.862 341.416 875.242 341.403 875.723 341.378 876.141 341.352 876.394 341.283 876.483 341.169 876.61 341.004 876.717 340.402 876.806 339.364 876.806 339.339 876.806 339.307 876.806 339.269L878.649 339.478C878.598 340.073 878.554 340.542 878.516 340.884 878.478 341.226 878.415 341.542 878.326 341.834 878.237 342.125 878.155 342.334 878.079 342.461 878.003 342.587 877.867 342.698 877.67 342.793 877.474 342.888 877.284 342.948 877.1 342.974 876.917 342.999 876.648 343.018 876.293 343.031 875.533 343.056 874.944 343.069 874.526 343.069 874.032 343.069 873.443 343.056 872.759 343.031 871.898 342.993 871.359 342.904 871.144 342.765 870.929 342.625 870.821 342.284 870.821 341.739ZM818.298 335.336 819.818 336.286C819.109 337.286 818.393 338.16 817.671 338.908 818.152 339.364 818.583 339.737 818.963 340.029 819.799 339.142 820.496 338.287 821.053 337.464L822.573 338.414C821.952 339.301 821.23 340.174 820.407 341.036 821.205 341.555 822.047 342.036 822.934 342.48L822.193 344.171C820.508 343.322 818.969 342.315 817.576 341.15L817.576 342.119 810.546 342.119 810.546 341.15C809.153 342.315 807.614 343.322 805.929 344.171L805.188 342.48C806.404 341.859 807.519 341.213 808.532 340.542 807.759 339.82 806.898 339.06 805.948 338.262L807.278 336.97C808.152 337.717 809.064 338.534 810.014 339.421 810.901 338.686 811.648 337.895 812.256 337.046L807.829 337.046 807.829 335.393 815.011 335.393C815.353 336.102 815.841 336.843 816.474 337.616 817.107 336.932 817.715 336.172 818.298 335.336ZM826.513 335.203 828.356 335.203C829.331 336.355 830.345 337.249 831.396 337.882L830.731 339.554C830.63 339.49 830.49 339.396 830.313 339.269L830.313 340.409 828.299 340.409 828.299 342.271 830.541 342.271 830.541 341.549 837.533 341.549 837.533 340.143 831.396 340.143 831.396 338.566 837.533 338.566 837.533 337.179 831.149 337.179 831.149 335.526 839.566 335.526 839.566 341.549 840.801 341.549 840.801 343.221 836.469 343.221 836.469 343.259C836.735 344.031 837.102 344.848 837.571 345.71 838.268 345.038 838.901 344.304 839.471 343.506L840.801 344.646C840.117 345.596 839.357 346.457 838.521 347.23 839.357 348.421 840.263 349.421 841.238 350.232L839.927 351.695C838.546 350.441 837.394 348.826 836.469 346.85L836.469 349.073C836.469 350.352 836.345 351.153 836.099 351.476 835.851 351.799 835.202 351.961 834.151 351.961 833.834 351.961 833.182 351.929 832.194 351.866L832.118 350.251C833.005 350.314 833.568 350.346 833.809 350.346 834.126 350.346 834.325 350.289 834.407 350.175 834.49 350.061 834.531 349.744 834.531 349.225L834.531 347.857C833.29 349.174 831.833 350.396 830.161 351.524L829.116 350.251C827.381 350.808 825.531 351.296 823.568 351.714L823.359 350.023C824.043 349.883 825.056 349.637 826.399 349.282L826.399 343.943 823.606 343.943 823.606 342.271 826.399 342.271 826.399 340.409 824.746 340.409 824.746 339.725C824.328 340.105 823.904 340.453 823.473 340.77L823.074 338.832C824.265 337.92 825.411 336.71 826.513 335.203ZM792.211 335.013 794.092 335.45C793.813 336.223 793.592 336.818 793.427 337.236L801.521 337.236 801.521 338.851 792.781 338.851C792.578 339.345 792.287 340.016 791.907 340.865L791.945 340.884C792.781 340.542 793.535 340.371 794.206 340.371 795.802 340.371 796.872 341.156 797.417 342.727 798.658 342.461 800.052 342.233 801.597 342.043L801.768 343.696C800.147 343.898 798.823 344.12 797.797 344.361 797.936 345.311 798.006 346.419 798.006 347.686L796.011 347.686C796.011 346.559 795.973 345.621 795.897 344.874 793.313 345.672 792.021 346.609 792.021 347.686 792.021 347.99 792.078 348.249 792.192 348.465 792.306 348.68 792.521 348.883 792.838 349.073 793.155 349.263 793.633 349.405 794.272 349.5 794.912 349.595 795.713 349.643 796.676 349.643 797.943 349.643 799.507 349.497 801.369 349.206L801.54 350.916C800.02 351.169 798.399 351.296 796.676 351.296 794.32 351.296 792.623 351.02 791.584 350.469 790.545 349.918 790.026 349.054 790.026 347.876 790.026 345.874 791.869 344.316 795.555 343.202 795.378 342.746 795.153 342.432 794.88 342.261 794.608 342.09 794.257 342.005 793.826 342.005 793.167 342.005 792.376 342.359 791.451 343.069 790.526 343.778 789.602 344.785 788.677 346.09L787.1 345.064C788.607 342.999 789.83 340.928 790.767 338.851L787.271 338.851 787.271 337.236 791.432 337.236C791.736 336.425 791.996 335.684 792.211 335.013ZM884.508 334.937 886.351 335.146C886.161 336.374 885.933 337.609 885.667 338.851L887.111 338.851C887.732 338.851 888.197 338.851 888.507 338.851 888.818 338.851 889.16 338.886 889.533 338.955 889.907 339.025 890.167 339.088 890.312 339.145 890.458 339.202 890.623 339.342 890.806 339.563 890.99 339.785 891.104 339.984 891.148 340.162 891.193 340.339 891.243 340.656 891.3 341.112 891.357 341.568 891.386 341.986 891.386 342.366 891.386 342.746 891.386 343.316 891.386 344.076 891.386 346.47 891.098 348.256 890.521 349.434 889.945 350.612 889.188 351.201 888.251 351.201 887.136 351.201 885.825 350.878 884.318 350.232L884.926 348.503C886.256 349.035 887.238 349.301 887.871 349.301 888.048 349.301 888.226 349.193 888.403 348.978 888.58 348.762 888.745 348.439 888.897 348.009 889.049 347.578 889.169 346.999 889.258 346.27 889.347 345.542 889.391 344.715 889.391 343.791 889.391 343.284 889.391 342.923 889.391 342.708 889.391 342.492 889.378 342.233 889.353 341.929 889.328 341.625 889.309 341.428 889.296 341.34 889.283 341.251 889.233 341.131 889.144 340.979 889.055 340.827 888.986 340.741 888.935 340.722 888.884 340.703 888.767 340.672 888.583 340.627 888.4 340.583 888.245 340.561 888.118 340.561 887.991 340.561 887.782 340.561 887.491 340.561L885.268 340.561C884.369 344.247 883.172 347.838 881.677 351.334L879.929 350.669C881.335 347.363 882.462 343.993 883.311 340.561L880.176 340.561 880.176 338.851 883.729 338.851C884.058 337.382 884.318 336.077 884.508 334.937ZM864.171 334.918 866.204 335.241C865.609 336.621 865.032 337.844 864.475 338.908 865.906 338.806 866.964 338.718 867.648 338.642 867.243 337.882 866.812 337.141 866.356 336.419L868.104 335.754C869.041 337.236 869.896 338.775 870.669 340.371L868.921 341.112C868.883 341.023 868.81 340.878 868.703 340.675 868.595 340.472 868.516 340.314 868.465 340.2 865.868 340.491 863.443 340.675 861.188 340.751L861.074 339.079C861.213 339.066 861.416 339.057 861.682 339.05 861.948 339.044 862.151 339.041 862.29 339.041 862.911 337.837 863.538 336.463 864.171 334.918ZM689.711 334.291C690.446 334.291 691.073 334.551 691.592 335.07 692.111 335.589 692.371 336.216 692.371 336.951 692.371 337.685 692.111 338.312 691.592 338.832 691.073 339.351 690.446 339.611 689.711 339.611L689.635 339.611C689.331 343.208 688.178 345.941 686.177 347.809 684.176 349.678 681.243 350.808 677.38 351.201L677.019 349.358C680.515 348.99 683.099 347.996 684.771 346.375 686.443 344.753 687.38 342.309 687.583 339.041L675.366 339.041 675.366 337.141 687.051 337.141 687.051 336.951C687.051 336.216 687.311 335.589 687.83 335.07 688.349 334.551 688.976 334.291 689.711 334.291Z" stroke="#FFFFFF" stroke-width="8" stroke-linejoin="round" stroke-miterlimit="10" fill="#B45F06" fill-rule="evenodd"/><text fill="#000000" fill-opacity="0" font-family="Arial,Arial_MSFontService,sans-serif" font-size="17.765" x="675.366" y="349.835">プロファイルを登録可能か</text><path d="M898.359 335.811 900.259 335.811C901.475 336.926 902.412 338.24 903.071 339.753 903.73 341.267 904.059 342.879 904.059 344.589 904.059 346.299 903.73 347.914 903.071 349.434 902.412 350.954 901.475 352.271 900.259 353.386L898.359 353.386C900.829 350.992 902.064 348.059 902.064 344.589 902.064 341.131 900.829 338.205 898.359 335.811Z" stroke="#FFFFFF" stroke-width="8" stroke-linejoin="round" stroke-miterlimit="10" fill="#B45F06" fill-rule="evenodd"/><text fill="#000000" fill-opacity="0" font-family="Arial,Arial_MSFontService,sans-serif" font-size="17.575" x="898.359" y="351.189">)</text><text fill="#B45F06" font-family="M PLUS 1p Medium,M PLUS 1p Medium_MSFontService,sans-serif" font-weight="500" font-size="19" transform="translate(695.943 305)">最高品質で出力したい</text><text fill="#B45F06" font-family="M PLUS 1p Medium,M PLUS 1p Medium_MSFontService,sans-serif" font-weight="500" font-size="19" transform="translate(683.69 328)">(</text><text fill="#B45F06" font-family="M PLUS 1p Medium,M PLUS 1p Medium_MSFontService,sans-serif" font-weight="500" font-size="19" transform="translate(691.357 328)">出力までに</text><text fill="#B45F06" font-family="M PLUS 1p Medium,M PLUS 1p Medium_MSFontService,sans-serif" font-weight="500" font-size="19" transform="translate(784.69 328)">100</text><text fill="#B45F06" font-family="M PLUS 1p Medium,M PLUS 1p Medium_MSFontService,sans-serif" font-weight="500" font-size="19" transform="translate(820.19 328)">個以上の</text><text fill="#B45F06" font-family="M PLUS 1p Medium,M PLUS 1p Medium_MSFontService,sans-serif" font-weight="500" font-size="19" transform="translate(673.443 350)">プロファイルを登録可能か</text><text fill="#B45F06" font-family="M PLUS 1p Medium,M PLUS 1p Medium_MSFontService,sans-serif" font-weight="500" font-size="19" transform="translate(897.443 350)">)</text></g></svg>